<svg width="515" height="318" viewBox="0 0 515 318" fill="none" xmlns="http://www.w3.org/2000/svg">
<g clip-path="url(#clip0_40_6069)">
<path d="M349.921 56.1421C349.921 56.2311 349.921 56.3202 349.921 56.4107H515C514.978 53.7184 513.892 51.1439 511.979 49.2491C510.066 47.3543 507.48 46.2931 504.787 46.2972H488.584L488.971 46.2051C487.279 42.8248 484.677 39.9827 481.459 37.9976C478.242 36.0125 474.534 34.9628 470.753 34.9663C469.713 34.9661 468.675 35.044 467.646 35.1994C467.82 34.0765 467.907 32.9421 467.908 31.8059C467.908 17.4794 454.187 5.8606 437.267 5.8606C421.788 5.8606 408.985 15.5867 406.921 28.2046C403.319 25.7925 399.08 24.5082 394.745 24.5157C383.073 24.5157 373.54 33.6377 372.93 45.1215C370.435 43.5957 367.563 42.7948 364.638 42.8087C356.516 42.8146 349.921 48.7806 349.921 56.1421Z" fill="#E5F1EF"/>
<path d="M99.0418 72.7383C119.134 72.7383 135.422 56.4553 135.422 36.3692C135.422 16.283 119.134 0 99.0418 0C78.9496 0 62.6616 16.283 62.6616 36.3692C62.6616 56.4553 78.9496 72.7383 99.0418 72.7383Z" fill="#C8D9D2"/>
<path d="M0 80.5718C0 80.6371 0 80.7024 0 80.7677H120.313C120.297 78.8056 119.505 76.9295 118.111 75.5487C116.716 74.168 114.832 73.3946 112.869 73.3974H101.06L101.342 73.3306C100.109 70.8668 98.2129 68.7953 95.8675 67.3484C93.5221 65.9016 90.8199 65.1366 88.0639 65.1394C87.3063 65.1422 86.5498 65.2013 85.8009 65.3161C85.9273 64.4982 85.9909 63.672 85.991 62.8444C85.991 52.4013 75.9901 43.934 63.6595 43.934C52.3742 43.934 43.0475 51.0193 41.5418 60.2229C38.9178 58.462 35.8283 57.5235 32.668 57.5271C24.1669 57.5271 17.2249 64.176 16.7795 72.5454C14.9606 71.4333 12.8679 70.8499 10.7359 70.8605C4.80665 70.8605 0 75.207 0 80.5718Z" fill="#E5F1EF"/>
<path d="M461.479 164.967C461.479 191.186 454.551 215.788 442.422 237.041C417.337 281.001 370.012 310.639 315.759 310.639C235.277 310.639 170.042 245.419 170.042 164.967C170.042 131.864 181.089 101.339 199.698 76.8754C207.199 67.0125 215.922 58.1404 225.657 50.4714C250.455 30.9419 281.746 19.2979 315.762 19.2979C336.674 19.2688 357.345 23.7568 376.361 32.4546C401.773 44.0482 423.31 62.7071 438.403 86.204C453.496 109.701 461.507 137.043 461.479 164.967Z" fill="#BECDC8"/>
<path d="M365.995 90.476L362.209 96.1555C362.076 96.3543 362 96.5853 361.989 96.8239C361.977 97.0625 362.031 97.2997 362.144 97.5103C362.256 97.7209 362.424 97.8969 362.629 98.0196C362.834 98.1423 363.069 98.2071 363.308 98.207H369.815C370.164 98.207 370.5 98.3459 370.748 98.593C370.995 98.8402 371.134 99.1755 371.135 99.5252C371.135 99.8752 371.274 100.211 371.521 100.458C371.769 100.706 372.105 100.845 372.455 100.845H372.712C373.062 100.845 373.398 100.706 373.645 100.458C373.893 100.211 374.032 99.8752 374.032 99.5252V97.1501C374.032 96.8128 373.903 96.4883 373.671 96.2431L368.046 90.3053C367.91 90.1622 367.744 90.0515 367.559 89.9813C367.375 89.911 367.177 89.8831 366.98 89.8994C366.783 89.9158 366.592 89.9761 366.422 90.0759C366.252 90.1757 366.106 90.3124 365.995 90.476Z" fill="#5BC17F"/>
<path d="M357.88 89.7011H352.98C351.381 89.7009 349.8 90.0445 348.345 90.7086C346.891 91.3728 345.596 92.3419 344.549 93.5503L340.949 97.6978V103.263C340.95 103.504 340.903 103.743 340.812 103.967C340.72 104.19 340.585 104.392 340.414 104.563C340.243 104.734 340.041 104.869 339.818 104.961C339.594 105.053 339.355 105.1 339.114 105.099H334.527L315.553 126.955L315.534 126.979C314.824 127.793 314.32 128.765 314.064 129.814C313.807 130.862 313.805 131.957 314.058 133.007L315.903 140.649C315.995 141.031 315.956 141.433 315.792 141.79C315.628 142.148 315.349 142.439 314.999 142.619C314.65 142.799 314.25 142.857 313.864 142.783C313.478 142.709 313.128 142.507 312.87 142.211L305.436 133.576C304.704 132.724 303.797 132.04 302.776 131.572C301.755 131.103 300.645 130.861 299.522 130.861H290.51C289.426 130.86 288.352 131.073 287.35 131.488C286.349 131.902 285.438 132.51 284.672 133.276C283.905 134.042 283.297 134.952 282.881 135.953C282.466 136.954 282.253 138.027 282.252 139.111V141.932C282.253 143.892 283.033 145.772 284.419 147.158C285.806 148.544 287.686 149.322 289.647 149.323H296.556C297.124 149.323 297.683 149.46 298.187 149.722C298.69 149.985 299.122 150.365 299.447 150.83C299.772 151.296 299.979 151.832 300.052 152.395C300.125 152.958 300.061 153.53 299.865 154.063C299.527 154.976 299.403 155.954 299.504 156.923C299.605 157.891 299.927 158.823 300.445 159.647H305.564C306.038 159.647 306.506 159.74 306.944 159.922C307.381 160.103 307.779 160.368 308.114 160.703C308.449 161.038 308.714 161.436 308.895 161.873C309.076 162.311 309.169 162.779 309.169 163.253V168.448L312.157 171.371C312.255 171.468 312.314 171.597 312.324 171.735C312.334 171.872 312.295 172.008 312.212 172.119C312.13 172.229 312.01 172.306 311.876 172.335C311.741 172.365 311.601 172.344 311.48 172.278L295.628 163.535C291.701 161.369 287.289 160.234 282.803 160.235H275.287C273.439 160.235 271.613 159.842 269.929 159.083C268.245 158.324 266.742 157.215 265.519 155.831L239.448 126.34C238.847 125.66 238.108 125.115 237.28 124.742C236.452 124.369 235.554 124.176 234.646 124.176H232.67C231.169 124.176 229.729 123.58 228.667 122.519C227.606 121.457 227.009 120.018 227.009 118.517V100.597C227.009 98.7799 226.615 96.9844 225.855 95.3339C225.095 93.6833 223.986 92.217 222.605 91.0356L218.467 87.4952C212.957 82.7792 206.593 79.1645 199.72 76.8472C206.146 68.4048 213.47 60.6849 221.563 53.8233H254.902L272.047 47.406C272.517 46.7009 275.049 46.6162 275.631 47.2308L281.162 53.8233H307.769C308.108 53.8231 308.441 53.9151 308.731 54.0895C309.022 54.2638 309.26 54.514 309.419 54.8131C309.578 55.1123 309.653 55.4491 309.636 55.7875C309.618 56.126 309.509 56.4533 309.319 56.7343L306.14 61.4563C305.341 62.644 304.262 63.6171 302.999 64.2901C301.735 64.9631 300.325 65.3154 298.894 65.3159H295.974C295.282 65.3155 294.596 65.4515 293.956 65.7162C293.316 65.9808 292.734 66.3688 292.244 66.8582C291.754 67.3475 291.365 67.9286 291.1 68.5682C290.834 69.2077 290.697 69.8933 290.697 70.5857V71.9114C290.698 73.1524 291.136 74.3535 291.935 75.3037C292.733 76.2538 293.841 76.8923 295.064 77.107L315.652 80.7097C316.386 80.8388 317.139 80.811 317.861 80.628C318.583 80.4451 319.259 80.1111 319.842 79.6483C320.426 79.1854 320.905 78.6041 321.247 77.9426C321.59 77.2812 321.788 76.5547 321.83 75.811H320.377C320.152 75.8114 319.929 75.7673 319.72 75.6813C319.512 75.5953 319.323 75.4691 319.163 75.3098C319.004 75.1505 318.877 74.9614 318.791 74.7532C318.705 74.545 318.661 74.3218 318.661 74.0965V71.9811C318.659 71.5306 318.481 71.0986 318.164 70.7783C317.847 70.4579 317.417 70.2747 316.967 70.2681C316.509 70.27 316.069 70.091 315.744 69.77C315.418 69.4491 315.232 69.0123 315.228 68.555C315.228 68.3299 315.272 68.107 315.358 67.8991C315.444 67.6912 315.571 67.5023 315.73 67.3432C315.889 67.1841 316.078 67.0579 316.287 66.9719C316.495 66.8859 316.718 66.8417 316.943 66.8419H340.474C341.534 66.8419 342.582 67.0592 343.554 67.4806C344.526 67.9019 345.401 68.5182 346.126 69.2913L360.22 84.3036C362.149 86.3462 360.693 89.7011 357.88 89.7011Z" fill="#5BC17F"/>
<path d="M245.052 37.5656L238.9 47.8513C238.805 48.6945 236.593 49.9296 235.794 49.649L229.975 47.2056C234.798 43.6859 239.833 40.4665 245.052 37.5656Z" fill="#5BC17F"/>
<path d="M348.696 272.013V273.266C348.696 273.635 348.624 274.001 348.483 274.342C348.341 274.683 348.134 274.992 347.873 275.253C347.612 275.514 347.302 275.721 346.961 275.863C346.62 276.004 346.254 276.076 345.885 276.076H341.459L338.596 283.32C338.445 283.699 338.431 284.118 338.555 284.506C338.679 284.893 338.934 285.226 339.276 285.447C339.581 285.645 339.837 285.909 340.025 286.219C340.213 286.53 340.329 286.879 340.363 287.24C340.397 287.602 340.348 287.966 340.221 288.307C340.094 288.647 339.892 288.954 339.629 289.205L334.236 294.345C333.964 295.034 333.865 295.78 333.947 296.516C334.028 297.252 334.289 297.957 334.706 298.57C335.123 299.183 335.683 299.684 336.338 300.031C336.993 300.377 337.723 300.559 338.464 300.559H343.423C343.812 300.553 344.191 300.681 344.497 300.92C344.803 301.16 345.018 301.497 345.106 301.876C345.153 302.116 345.148 302.363 345.088 302.6C345.029 302.837 344.918 303.058 344.764 303.248C344.609 303.437 344.414 303.59 344.194 303.695C343.973 303.8 343.732 303.855 343.487 303.856H333.362C330.013 303.856 326.802 302.527 324.433 300.161C322.064 297.795 320.732 294.586 320.729 291.238V281.779C320.73 280.938 320.837 280.101 321.049 279.287L330.955 240.682C331.69 237.815 331.487 234.787 330.376 232.043C329.264 229.299 327.303 226.983 324.779 225.435L319.938 222.466L309.281 203.238C308.308 201.487 307.797 199.517 307.796 197.514V195.617C307.796 193.688 308.268 191.789 309.171 190.085C310.075 188.381 311.382 186.923 312.978 185.84L315.687 184C316.675 183.332 317.487 182.437 318.056 181.389C318.625 180.341 318.932 179.172 318.953 177.98L319.029 173.941C319.055 172.528 319.635 171.181 320.644 170.19C321.653 169.2 323.011 168.645 324.425 168.646H339.909C341.731 168.646 343.536 169.011 345.215 169.719C346.895 170.427 348.416 171.464 349.688 172.768L356.21 179.463C356.779 180.048 357.46 180.512 358.212 180.829C358.964 181.146 359.773 181.309 360.589 181.308H363.798C365.418 181.308 367 181.794 368.341 182.703C369.681 183.613 370.717 184.904 371.314 186.409L373.51 193.037L398.939 201.944C400.008 202.398 400.918 203.156 401.559 204.123C402.199 205.091 402.541 206.226 402.542 207.386V210.01C402.541 210.82 402.375 211.621 402.052 212.364C401.73 213.108 401.26 213.777 400.669 214.332L396.322 218.387C395.659 219.007 395.13 219.756 394.769 220.589C394.408 221.421 394.222 222.319 394.222 223.226V230.843C394.222 233.274 393.256 235.605 391.537 237.324C389.817 239.043 387.486 240.008 385.054 240.008H382.781C380.812 240.008 378.923 240.79 377.531 242.182C376.138 243.574 375.356 245.462 375.356 247.431V248.715L359.242 267.076C358.666 267.732 357.957 268.257 357.162 268.617C356.367 268.977 355.504 269.163 354.631 269.163L351.142 269.399C350.479 269.443 349.857 269.738 349.403 270.223C348.949 270.709 348.696 271.349 348.696 272.013Z" fill="#5BC17F"/>
<path d="M402.422 47.8455H397.443C395.938 47.8457 394.484 48.3886 393.347 49.3744L390.808 51.5789C389.272 52.9171 387.303 53.6552 385.265 53.6571H375.817C374.495 53.6571 373.227 54.1814 372.292 55.1149C371.357 56.0484 370.831 57.3148 370.829 58.636V61.1892C370.829 61.6772 370.732 62.1604 370.545 62.6111C370.358 63.0619 370.084 63.4713 369.739 63.816C369.393 64.1607 368.983 64.4339 368.532 64.62C368.081 64.8061 367.597 64.9013 367.109 64.9004H365.516C364.848 64.9003 364.193 64.7209 363.618 64.3808L354.175 58.7844C353.218 58.2171 352.425 57.4105 351.874 56.4439C351.322 55.4772 351.032 54.3838 351.032 53.2711V46.0893L346.562 38.8808C345.327 36.8894 343.604 35.246 341.556 34.1064C339.508 32.9668 337.202 32.3686 334.858 32.3685H315.51C314.808 32.3686 314.129 32.1157 313.597 31.6562C313.066 31.1967 312.718 30.5613 312.618 29.8664C312.517 29.1714 312.67 28.4634 313.049 27.872C313.427 27.2806 314.006 26.8453 314.68 26.646L331.651 21.6092C333.031 21.1998 334.438 20.8863 335.862 20.671C349.864 22.5989 363.507 26.568 376.357 32.4517C385.557 36.6633 394.292 41.8224 402.422 47.8455Z" fill="#5BC17F"/>
<path d="M455.703 124.224C455.045 124.357 454.454 124.714 454.029 125.233C453.605 125.753 453.373 126.403 453.373 127.074V127.34C453.373 127.688 453.291 128.032 453.131 128.342C452.972 128.652 452.741 128.92 452.458 129.123C452.175 129.327 451.847 129.459 451.502 129.51C451.157 129.562 450.805 129.53 450.474 129.418L438.73 125.419C438.296 125.271 437.92 124.991 437.653 124.618C437.387 124.246 437.244 123.799 437.245 123.34V119C437.245 118.581 437.155 118.167 436.98 117.787C436.806 117.406 436.551 117.068 436.234 116.795C435.917 116.521 435.544 116.319 435.142 116.203C434.74 116.087 434.317 116.058 433.903 116.12L412.551 119.294C411.629 119.431 410.717 119.63 409.821 119.888V117.478C409.82 117.296 409.856 117.114 409.926 116.946C409.996 116.777 410.098 116.623 410.228 116.494C410.357 116.364 410.51 116.262 410.679 116.192C410.848 116.122 411.029 116.086 411.212 116.086H413.426C414.066 116.087 414.699 115.949 415.28 115.683C415.862 115.416 416.379 115.027 416.797 114.542L423.191 107.106C423.956 106.218 424.904 105.505 425.97 105.016C427.036 104.527 428.195 104.273 429.368 104.273H435.171C436.431 104.272 437.677 104.54 438.826 105.058C439.975 105.577 441 106.334 441.832 107.28L444.505 110.31C445.396 111.325 447.073 110.546 446.865 109.205C446.834 109.009 446.818 108.81 446.817 108.612C446.821 107.944 447.002 107.29 447.343 106.716C447.683 106.142 448.171 105.669 448.755 105.346C447.864 103.372 446.935 101.421 445.968 99.4956C442.944 93.4995 439.509 87.7201 435.686 82.1987L426.814 87.5725C425.355 88.4561 423.63 88.795 421.945 88.5293C420.26 88.2636 418.724 87.4103 417.608 86.1207L414.341 82.3442L404.735 80.692C404.706 80.687 404.676 80.688 404.647 80.6951C404.618 80.7022 404.592 80.7151 404.568 80.7331C404.545 80.7511 404.525 80.7737 404.511 80.7996C404.497 80.8255 404.488 80.8541 404.485 80.8835C404.428 81.4179 404.175 81.9122 403.775 82.2712C403.375 82.6302 402.856 82.8286 402.319 82.8281H397.91C397.711 82.8281 397.515 82.8746 397.337 82.9639C397.159 83.0532 397.004 83.1828 396.885 83.3425C396.767 83.5021 396.687 83.6874 396.652 83.8834C396.618 84.0794 396.629 84.2808 396.687 84.4714L397.726 87.9436C397.726 88.1568 397.768 88.3679 397.85 88.5648C397.931 88.7618 398.051 88.9407 398.202 89.0914C398.353 89.2421 398.532 89.3616 398.729 89.443C398.926 89.5245 399.137 89.5663 399.351 89.5661H401.94C403.346 89.567 404.725 89.9512 405.929 90.6773C407.132 91.4035 408.115 92.444 408.771 93.6869L412.128 100.07C412.359 100.507 412.472 100.996 412.458 101.49C412.444 101.983 412.303 102.465 412.047 102.888C411.792 103.311 411.432 103.661 411.002 103.904C410.572 104.146 410.086 104.274 409.592 104.274H403.479C402.723 104.275 401.998 104.576 401.463 105.111C400.929 105.645 400.628 106.37 400.628 107.126V111.975C400.628 113.065 401.062 114.11 401.832 114.88C402.603 115.65 403.648 116.084 404.738 116.084C405.003 116.084 405.265 116.136 405.51 116.237C405.755 116.338 405.977 116.487 406.165 116.675C406.352 116.862 406.5 117.085 406.601 117.33C406.702 117.574 406.754 117.837 406.753 118.102V121.05C404.37 122.175 402.222 123.742 400.423 125.668L389.163 137.746C387.093 139.966 385.943 142.887 385.943 145.922V152.364C385.943 155.445 387.129 158.407 389.255 160.637L400.61 172.543C401.174 173.136 401.854 173.608 402.606 173.931C403.359 174.254 404.17 174.421 404.989 174.421H428.063C428.698 174.42 429.323 174.586 429.874 174.902C430.425 175.218 430.884 175.673 431.206 176.221C431.527 176.769 431.699 177.392 431.705 178.027C431.711 178.662 431.55 179.288 431.239 179.842L429.457 183.005C429.113 183.618 428.954 184.318 428.999 185.019C429.045 185.721 429.292 186.394 429.712 186.958L432.261 190.387C432.73 191.015 432.983 191.777 432.982 192.561V210.077C432.981 211.441 433.348 212.781 434.044 213.955L437.977 220.611C438.825 222.048 439.272 223.686 439.271 225.354V231.835L442.057 237.666C442.177 237.458 442.297 237.25 442.414 237.042C454.543 215.789 461.472 191.187 461.472 164.969C461.486 151.183 459.544 137.464 455.703 124.224ZM431.307 77.3401H432.177C431.079 75.8824 429.954 74.4474 428.802 73.0352C428.302 72.4191 427.795 71.8105 427.285 71.2034C426.994 71.8708 426.874 72.6001 426.935 73.3255C426.997 74.0509 427.238 74.7496 427.637 75.3585C428.036 75.9674 428.581 76.4674 429.221 76.8133C429.862 77.1593 430.579 77.3403 431.307 77.3401Z" fill="#5BC17F"/>
<path d="M389.978 290.441C386.563 291.293 368.35 308.954 303.791 312.844V289.595C303.791 284.636 305.76 279.88 309.264 276.371C312.769 272.862 317.523 270.886 322.483 270.877C323.077 270.877 323.677 270.906 324.284 270.964C361.31 275.457 386.699 283.041 389.978 290.441Z" fill="#E5F1EF"/>
<path d="M345.103 217.265C344.858 217.617 329.158 240.221 324.285 270.964C323.679 270.906 323.078 270.877 322.483 270.877C317.523 270.886 312.769 272.862 309.265 276.371C305.76 279.88 303.792 284.636 303.791 289.595V312.845C298.422 313.339 292.869 313.795 287.132 314.212C260.67 316.141 230.542 317.222 198.578 317.222C166.614 317.222 136.485 316.134 110.023 314.212C56.2781 310.305 17.6542 302.954 9.46045 294.277C34.8613 314.241 299.862 294.693 303.529 275.396C304.112 272.326 302.511 270.071 299.484 268.419C296.757 267.251 290.545 263.604 259.364 263.773C237.885 263.889 240.488 261.439 240.828 260.979C245.383 254.823 319.441 239.797 345.103 217.265Z" fill="#C8D9D2"/>
<path d="M9.18112 293.774C30.8058 314.556 299.832 294.846 303.528 275.392C306.917 257.557 236.63 267.261 240.828 260.967C245.026 254.673 348.665 232.911 348.664 209.55C348.664 198.019 253.805 194.348 166.036 216.722C13.1102 255.708 2.87917 287.723 9.18112 293.774Z" fill="#E5F1EF"/>
<path d="M149.663 220.611V204.02C152.3 202.478 155.114 201.26 158.045 200.395L192.256 190.292C192.256 190.292 191.136 192.633 189.608 196.177L149.663 220.611Z" fill="#423C52"/>
<path d="M188.358 237.632H153.776C153.236 237.632 152.701 237.526 152.202 237.319C151.703 237.113 151.249 236.81 150.867 236.428C150.485 236.046 150.182 235.593 149.976 235.094C149.769 234.596 149.663 234.061 149.663 233.521V204.02C152.3 202.478 155.114 201.26 158.045 200.395L192.256 190.292C192.256 190.292 187.939 199.325 184.683 208.768C182.497 215.087 180.785 221.592 181.152 225.691C181.838 233.428 188.358 237.632 188.358 237.632Z" fill="white" stroke="#423C52" stroke-width="5" stroke-miterlimit="10" stroke-linecap="round"/>
<path d="M158.045 200.401L192.256 190.298C192.256 190.298 187.939 199.331 184.683 208.774L159.501 216.211C156.025 217.237 152.714 218.757 149.67 220.725V204.021C152.305 202.48 155.117 201.265 158.045 200.401Z" fill="#423C52"/>
<path d="M286.884 237.632H263.801C263.801 237.632 271.192 221.981 268.768 207.862C267.595 201.034 265.584 195.601 263.562 191.51C262.623 189.595 261.554 187.747 260.365 185.977C260.051 185.515 259.625 185.141 259.127 184.888C258.629 184.636 258.075 184.514 257.517 184.533C256.959 184.553 256.415 184.714 255.936 185C255.457 185.287 255.058 185.69 254.777 186.173C264.012 170.338 280.095 157.171 294.721 147.046C293.557 149.378 291.737 156.717 291.628 166.07C291.554 172.388 292.264 179.624 294.484 186.853C300.412 206.167 301.822 228.974 286.884 237.632Z" fill="white" stroke="#423C52" stroke-width="5" stroke-miterlimit="10" stroke-linecap="round"/>
<path d="M294.72 147.046C293.556 149.378 291.735 156.717 291.627 166.07C281.717 173.246 271.537 181.766 263.562 191.51C262.623 189.595 261.554 187.747 260.365 185.977C260.051 185.515 259.625 185.141 259.127 184.888C258.629 184.636 258.075 184.514 257.517 184.533C256.959 184.553 256.415 184.714 255.936 185C255.457 185.287 255.058 185.69 254.777 186.173C264.016 170.338 280.095 157.171 294.72 147.046Z" fill="#423C52"/>
<path d="M335.83 97.5793H166.469C126.348 97.5793 94.4744 131.291 96.7359 171.336L100.2 232.718C100.275 234.046 100.855 235.295 101.821 236.208C102.788 237.122 104.067 237.631 105.397 237.632H136.414L134.546 235.505C133.395 234.196 132.604 232.61 132.249 230.904C131.894 229.198 131.988 227.429 132.522 225.769L133.024 224.208C135.008 218.541 138.312 213.427 142.662 209.288C147.012 205.148 152.285 202.103 158.045 200.402L210.174 185.006C211.19 184.706 212.263 184.647 213.306 184.834C214.349 185.021 215.335 185.448 216.184 186.082C217.033 186.716 217.722 187.54 218.198 188.487C218.673 189.434 218.921 190.478 218.921 191.538V233.083C218.923 234.291 219.403 235.448 220.258 236.301C221.113 237.154 222.271 237.633 223.479 237.632H254.751C254.751 237.632 249.702 230.892 247.911 221.37C240.081 179.75 290.283 149.464 314.386 134.269L335.83 97.5793Z" fill="white" stroke="#423C52" stroke-width="5" stroke-miterlimit="10" stroke-linecap="round"/>
<path d="M314.388 134.269C311.956 135.802 309.256 137.49 306.378 139.328C292.549 126.217 288.626 111.717 287.563 103.315L287.971 103.786C290.083 111.01 295.553 123.167 309.503 132.722L309.572 132.77C310.989 133.744 312.668 134.267 314.388 134.269Z" fill="#423C52"/>
<path d="M340.813 103.752C338.711 110.972 333.24 123.152 319.27 132.722L319.2 132.77C317.785 133.746 316.106 134.268 314.387 134.268C312.668 134.268 310.989 133.746 309.574 132.77L309.504 132.722C295.531 123.152 290.063 110.972 287.961 103.752C287.07 100.679 289.274 97.5791 292.341 97.5791H295.099C295.959 97.5846 296.806 97.7959 297.568 98.1954C298.33 98.5949 298.985 99.1711 299.479 99.8756L299.499 99.9023C299.589 100.031 299.709 100.135 299.849 100.208C299.988 100.28 300.143 100.318 300.3 100.318C300.458 100.318 300.612 100.28 300.752 100.208C300.892 100.135 301.012 100.031 301.102 99.9023C302.155 98.501 304.118 97.5762 306.487 97.5762H321.995C324.304 97.5762 326.312 98.5069 327.382 99.9172C327.473 100.044 327.594 100.148 327.733 100.219C327.873 100.29 328.027 100.326 328.184 100.325C328.34 100.324 328.494 100.286 328.633 100.213C328.771 100.14 328.89 100.035 328.98 99.9068L329.005 99.8726C329.499 99.1681 330.154 98.592 330.916 98.1924C331.678 97.7929 332.525 97.5816 333.386 97.5762H336.433C339.5 97.5791 341.709 100.679 340.813 103.752Z" fill="white" stroke="#423C52" stroke-width="5" stroke-miterlimit="10" stroke-linecap="round"/>
<path d="M290.801 102.986C290.801 102.641 290.938 102.31 291.182 102.066C291.426 101.822 291.757 101.685 292.102 101.685H292.452C292.891 101.684 293.325 101.77 293.73 101.937C294.136 102.104 294.504 102.349 294.815 102.659C295.125 102.968 295.371 103.336 295.539 103.741C295.707 104.146 295.794 104.58 295.794 105.018" stroke="#423C52" stroke-width="5" stroke-miterlimit="10" stroke-linecap="round"/>
<path d="M338.088 102.986C338.088 102.815 338.055 102.646 337.989 102.488C337.924 102.33 337.828 102.187 337.707 102.066C337.587 101.945 337.443 101.85 337.285 101.784C337.128 101.719 336.958 101.685 336.788 101.685H336.439C336.001 101.685 335.567 101.771 335.162 101.938C334.758 102.106 334.39 102.351 334.08 102.661C333.771 102.97 333.525 103.338 333.357 103.742C333.19 104.147 333.104 104.58 333.104 105.018" stroke="#423C52" stroke-width="5" stroke-miterlimit="10" stroke-linecap="round"/>
<path d="M315.961 119.173H312.607C311.384 119.173 310.393 120.164 310.393 121.387V121.418C310.393 122.64 311.384 123.631 312.607 123.631H315.961C317.184 123.631 318.175 122.64 318.175 121.418V121.387C318.175 120.164 317.184 119.173 315.961 119.173Z" fill="#423C52"/>
<path d="M306.323 118.857C306.774 118.857 307.14 118.492 307.14 118.041C307.14 117.59 306.774 117.224 306.323 117.224C305.872 117.224 305.506 117.59 305.506 118.041C305.506 118.492 305.872 118.857 306.323 118.857Z" fill="#423C52"/>
<path d="M323.309 118.857C323.76 118.857 324.126 118.492 324.126 118.041C324.126 117.59 323.76 117.224 323.309 117.224C322.858 117.224 322.492 117.59 322.492 118.041C322.492 118.492 322.858 118.857 323.309 118.857Z" fill="#423C52"/>
<path d="M140.536 43.4204C140.536 43.4204 138.254 39.4124 130.973 42.4258C124.982 44.9034 121.985 49.8852 111.705 48.38C101.425 46.8747 72.355 37.7245 72.355 37.7245V37.3371L128.508 36.1495C129.436 36.1518 130.346 36.4023 131.145 36.875C131.943 37.3478 132.6 38.0255 133.048 38.8379H138.064C138.73 38.8379 139.37 39.1027 139.841 39.574C140.313 40.0453 140.578 40.6845 140.578 41.3511L140.536 43.4204Z" fill="white" stroke="#423C52" stroke-width="5" stroke-linecap="round" stroke-linejoin="round"/>
<path d="M163.672 30.8173H157.055C155.741 30.8176 154.448 30.477 153.304 29.8287L149.444 27.6436C148.3 26.9946 147.008 26.6535 145.693 26.6534H140.996L146.622 25.5713C149.158 24.4445 151.981 24.1347 154.701 24.6848C157.421 25.2349 159.902 26.6176 161.8 28.6411L163.672 30.8173Z" fill="#423C52"/>
<path d="M146.507 25.8874C148.146 25.1584 149.921 24.7817 151.716 24.7815H135.786C129.35 24.782 122.971 25.9733 116.969 28.2952L94.8438 36.8531L123.165 36.2593C123.165 36.2593 145.106 26.4144 146.507 25.8874Z" fill="white" stroke="#423C52" stroke-width="5" stroke-miterlimit="10" stroke-linecap="round"/>
<path d="M140.582 41.351L140.536 43.4203C140.536 43.4203 138.254 39.5607 130.973 42.5727C124.981 45.0503 121.985 49.8851 111.705 48.3799C101.425 46.8746 72.3549 37.7245 72.3549 37.7245V37.337L84.8177 37.0743C82.283 30.8173 66.7627 28.1393 43.858 28.1393C34.8713 28.1393 34.708 24.6331 34.708 24.6331H84.3796C90.1883 24.6329 95.8834 26.2423 100.832 29.2824L112.477 36.4909L128.505 36.1539C129.433 36.1552 130.344 36.4048 131.142 36.8767C131.941 37.3487 132.599 38.0258 133.047 38.8378H138.064C138.394 38.8372 138.721 38.9018 139.027 39.0278C139.332 39.1539 139.61 39.3389 139.844 39.5723C140.078 39.8058 140.264 40.083 140.39 40.3882C140.517 40.6934 140.582 41.0206 140.582 41.351Z" fill="white" stroke="#423C52" stroke-width="5" stroke-miterlimit="10" stroke-linecap="round"/>
<path d="M129.337 39.6899C129.706 39.6899 130.005 39.3908 130.005 39.0219C130.005 38.653 129.706 38.3539 129.337 38.3539C128.968 38.3539 128.668 38.653 128.668 39.0219C128.668 39.3908 128.968 39.6899 129.337 39.6899Z" fill="#423C52"/>
<path d="M84.666 37.0743L94.701 36.9259" stroke="#423C52" stroke-width="5" stroke-miterlimit="10" stroke-linecap="round"/>
<path d="M473.751 294.082C473.75 298.197 472.672 302.24 470.622 305.808C468.572 309.376 465.622 312.345 462.067 314.419C458.512 316.492 454.476 317.599 450.36 317.627C446.244 317.656 442.193 316.606 438.609 314.582C435.026 312.558 432.035 309.631 429.936 306.092C427.836 302.553 426.701 298.525 426.643 294.411C426.585 290.297 427.607 286.239 429.606 282.643C431.605 279.046 434.512 276.036 438.037 273.912V62.1185C438.037 58.8945 439.318 55.8025 441.599 53.5227C443.879 51.243 446.972 49.9623 450.197 49.9623C453.422 49.9623 456.515 51.243 458.796 53.5227C461.076 55.8025 462.357 58.8945 462.357 62.1185V273.913C465.835 276.007 468.712 278.965 470.708 282.499C472.705 286.033 473.753 290.024 473.751 294.082Z" fill="white" stroke="#423C52" stroke-width="5" stroke-miterlimit="10" stroke-linecap="round"/>
<path d="M442.638 84.3363H457.969" stroke="#423C52" stroke-width="5" stroke-miterlimit="10" stroke-linecap="round"/>
<path d="M442.638 96.16H457.969" stroke="#423C52" stroke-width="5" stroke-miterlimit="10" stroke-linecap="round"/>
<path d="M442.638 107.982H457.969" stroke="#423C52" stroke-width="5" stroke-miterlimit="10" stroke-linecap="round"/>
<path d="M442.638 119.806H457.969" stroke="#423C52" stroke-width="5" stroke-miterlimit="10" stroke-linecap="round"/>
<path d="M442.638 131.63H457.969" stroke="#423C52" stroke-width="5" stroke-miterlimit="10" stroke-linecap="round"/>
<path d="M442.638 143.453H457.969" stroke="#423C52" stroke-width="5" stroke-miterlimit="10" stroke-linecap="round"/>
<path d="M442.638 155.277H457.969" stroke="#423C52" stroke-width="5" stroke-miterlimit="10" stroke-linecap="round"/>
<path d="M442.638 167.101H457.969" stroke="#423C52" stroke-width="5" stroke-miterlimit="10" stroke-linecap="round"/>
<path d="M442.638 178.924H457.969" stroke="#423C52" stroke-width="5" stroke-miterlimit="10" stroke-linecap="round"/>
<path d="M442.638 190.748H457.969" stroke="#423C52" stroke-width="5" stroke-miterlimit="10" stroke-linecap="round"/>
<path d="M442.638 202.572H457.969" stroke="#423C52" stroke-width="5" stroke-miterlimit="10" stroke-linecap="round"/>
<path d="M442.638 214.395H457.969" stroke="#423C52" stroke-width="5" stroke-miterlimit="10" stroke-linecap="round"/>
<path d="M442.638 226.219H457.969" stroke="#423C52" stroke-width="5" stroke-miterlimit="10" stroke-linecap="round"/>
<path d="M442.638 238.043H457.969" stroke="#423C52" stroke-width="5" stroke-miterlimit="10" stroke-linecap="round"/>
<path d="M442.638 249.866H457.969" stroke="#423C52" stroke-width="5" stroke-miterlimit="10" stroke-linecap="round"/>
<path d="M442.638 261.69H457.969" stroke="#423C52" stroke-width="5" stroke-miterlimit="10" stroke-linecap="round"/>
<path d="M442.638 273.514H457.969" stroke="#423C52" stroke-width="5" stroke-miterlimit="10" stroke-linecap="round"/>
<path d="M453.81 74.5478V107.58H446.584V74.5478C446.584 72.5483 448.037 70.9287 449.828 70.9287H450.57C452.358 70.9287 453.81 72.5483 453.81 74.5478Z" fill="white" stroke="#FE552F" stroke-width="6" stroke-linejoin="round"/>
<path d="M454.23 107.58H446.163V167.154H454.23V107.58Z" fill="#FE552F"/>
<path d="M458.508 294.039C458.51 295.488 458.132 296.912 457.414 298.17C456.695 299.428 455.66 300.476 454.411 301.211C453.162 301.946 451.743 302.342 450.294 302.359C448.845 302.377 447.416 302.016 446.15 301.311C444.884 300.607 443.823 299.584 443.074 298.344C442.325 297.104 441.914 295.689 441.88 294.241C441.846 292.793 442.191 291.361 442.882 290.087C443.572 288.813 444.583 287.742 445.815 286.979H454.576C455.779 287.724 456.772 288.763 457.46 289.999C458.148 291.234 458.509 292.625 458.508 294.039Z" fill="#BECDC8"/>
<path d="M454.578 286.979H445.817C445.93 286.907 446.046 286.84 446.164 286.773V226.283H454.233V286.773C454.349 286.84 454.464 286.907 454.578 286.979Z" fill="#BECDC8"/>
<path d="M454.23 167.154H446.163V226.281H454.23V167.154Z" fill="#FFDB00"/>
<path d="M452.347 119.736V289.08C453.531 289.737 454.518 290.698 455.204 291.865C455.891 293.031 456.253 294.36 456.252 295.714" stroke="white" stroke-width="5" stroke-miterlimit="10" stroke-linecap="round"/>
</g>
<defs>
<clipPath id="clip0_40_6069">
<rect width="515" height="318" fill="white"/>
</clipPath>
</defs>
</svg>
