<svg width="96" height="96" viewBox="0 0 96 96" fill="none" xmlns="http://www.w3.org/2000/svg">
<path d="M58.4258 41.5834C58.418 38.6815 57.2607 35.9009 55.2073 33.8503C53.1539 31.7997 50.3718 30.6463 47.4699 30.6423C44.5703 30.6494 41.7915 31.8044 39.7412 33.8547C37.6909 35.905 36.5359 38.6838 36.5288 41.5834C36.5327 44.4853 37.6863 47.2675 39.7368 49.3208C41.7874 51.3742 44.568 52.5315 47.4699 52.5394C50.3741 52.5346 53.1581 51.3788 55.2117 49.3252C57.2653 47.2716 58.4211 44.4876 58.4258 41.5834Z" fill="#5CC180"/>
<path d="M48.7665 58.5017H46.1729C41.3076 58.5061 36.6429 60.4407 33.2027 63.8809C29.7625 67.3212 27.8278 71.9859 27.8235 76.8511V86.3463H67.1159V76.8511C67.1116 71.9859 65.177 67.3212 61.7367 63.8809C58.2965 60.4407 53.6317 58.5061 48.7665 58.5017Z" fill="#5CC180"/>
<path d="M77.2818 8.83472L17.6575 8.83472C15.2855 8.83472 13.0107 9.77698 11.3334 11.4542C9.65613 13.1315 8.71387 15.4064 8.71387 17.7784L8.71387 77.4027C8.71387 79.7747 9.65613 82.0495 11.3334 83.7268C13.0107 85.4041 15.2855 86.3463 17.6575 86.3463H21.861V76.8512C21.8648 72.0953 23.2615 67.4447 25.8788 63.4738C28.496 59.5028 32.2192 56.3856 36.5883 54.5069C34.6995 52.925 33.1813 50.9476 32.1407 48.7145C31.1001 46.4814 30.5626 44.047 30.5662 41.5834C30.5729 37.1023 32.356 32.8067 35.5245 29.6382C38.6931 26.4696 42.9886 24.6866 47.4697 24.6799C51.953 24.6834 56.252 26.465 59.4236 29.6338C62.5952 32.8026 64.3806 37.1 64.3881 41.5834C64.3916 44.047 63.8542 46.4814 62.8136 48.7145C61.773 50.9476 60.2547 52.925 58.366 54.5069C62.7316 56.3888 66.451 59.5072 69.0653 63.4778C71.6797 67.4483 73.0747 72.0972 73.0783 76.8512V86.3463H77.2818C79.6538 86.3463 81.9287 85.4041 83.6059 83.7268C85.2832 82.0495 86.2255 79.7747 86.2255 77.4027V17.7784C86.2255 15.4064 85.2832 13.1315 83.6059 11.4542C81.9287 9.77698 79.6538 8.83472 77.2818 8.83472Z" fill="#5CC180" fill-opacity="0.55"/>
</svg>
