<svg width="41" height="36" viewBox="0 0 41 36" fill="none" xmlns="http://www.w3.org/2000/svg">
<path d="M0.107143 10.8201C1.38137 10.8746 2.64342 11.0967 3.86212 11.4808C5.09999 11.8102 6.30722 12.2496 7.46994 12.7938C8.64267 13.2804 9.7512 13.9142 10.77 14.6807C11.8087 15.3836 12.7829 16.1806 13.6811 17.062C14.5867 17.9885 15.4299 18.9763 16.2047 20.0188C16.9371 21.0676 17.5962 22.1675 18.1772 23.3106C18.7196 24.4904 19.1942 25.7014 19.5984 26.9374C19.9372 28.1867 20.2001 29.4561 20.3859 30.7383C20.4461 29.4401 20.6628 28.1546 21.0313 26.9107C21.3535 25.649 21.7836 24.4186 22.3166 23.2335C22.793 22.0384 23.414 20.9087 24.1651 19.8706C24.8732 18.8016 25.6524 17.7834 26.4974 16.8234C27.4069 15.9268 28.3759 15.0951 29.3974 14.3339C30.387 13.5301 31.4712 12.8554 32.6249 12.3255C33.7549 11.7123 34.9476 11.2272 36.1814 10.8792C37.3849 10.4499 38.6379 10.181 39.9092 10.0791C39.9228 10.8095 40.016 11.5384 40.0296 12.2688C40.0883 13.7666 39.9826 15.2661 39.7147 16.7397C39.5802 17.4823 39.4078 18.2171 39.1983 18.9412C39.0446 19.6709 38.8177 20.3825 38.5211 21.0647C38.2756 21.7602 37.996 22.4429 37.6832 23.1098L36.605 25.0782L35.285 26.8889L33.8823 28.5386L32.319 30.1102L30.5918 31.4413C29.964 31.9401 29.3333 32.2766 28.704 32.6942L26.732 33.7051L24.7556 34.4725L22.6168 35.0807L20.4735 35.4453L18.3182 35.1607L16.1583 34.6326L14.075 33.9408L12.0667 33.0039L10.2132 31.8207L8.4377 30.5548C7.86027 30.0938 7.31848 29.5881 6.81693 29.0425C6.26344 28.5518 5.74772 28.0187 5.27418 27.4476L3.96727 25.6859C3.55717 25.0441 3.14707 24.4022 2.81659 23.7589L1.82354 21.7479L1.06785 19.6511C0.857316 18.9336 0.684253 18.2051 0.54942 17.4688C0.390883 16.7476 0.270968 16.0181 0.190239 15.2836C0.0688367 14.5334 0.0279794 13.7719 0.0683105 13.0128C0.0415104 12.2817 0.0544643 11.5497 0.107143 10.8201Z" fill="url(#paint0_linear_312_17)"/>
<path d="M23.5785 3.69265L20.7958 2.57841C20.2462 2.35469 19.6557 2.47905 19.2519 2.84711L18.3251 3.58586L17.5748 2.64467L18.1044 5.68578L20.9509 6.88002L20.2006 5.93883L21.5074 4.8972L21.9229 7.529L24.8671 7.1061L24.5309 4.97297C24.483 4.41853 24.1291 3.90797 23.5785 3.69265ZM22.3715 14.167L24.6885 12.3201C25.1426 11.9581 25.3227 11.3759 25.2051 10.8386L25.0158 9.6504L26.1926 9.48198L23.315 8.3818L20.8947 10.2417L22.0715 10.0733L22.3372 11.7471L19.8689 10.7516L18.7955 13.5312L20.8 14.3346C21.3013 14.5737 21.9128 14.5327 22.3715 14.167ZM14.1794 7.84466L14.6452 10.8058C14.737 11.3868 15.152 11.8409 15.6772 12.0149L16.7895 12.4597L16.363 13.5693L18.7148 11.633L18.2848 8.57417L17.8582 9.68378L16.2896 9.05635L18.3471 7.41633L16.4715 5.06335L14.8033 6.3931C14.5735 6.55019 14.3931 6.76951 14.2829 7.02612C14.1726 7.28273 14.1367 7.56633 14.1794 7.84466Z" fill="#5BC17F"/>
<defs>
<linearGradient id="paint0_linear_312_17" x1="33.5641" y1="13.9477" x2="16.7975" y2="39.5108" gradientUnits="userSpaceOnUse">
<stop stop-color="#5BC17F"/>
<stop offset="1" stop-color="#5BC17F" stop-opacity="0.5"/>
</linearGradient>
</defs>
</svg>
