<svg width="601" height="278" viewBox="0 0 601 278" fill="none" xmlns="http://www.w3.org/2000/svg">
<g clip-path="url(#clip0_317_149)">
<path d="M442.821 277.339H537.828L549.102 165.478H431.546L442.821 277.339Z" fill="#DBE5E5"/>
<path d="M439.425 172.753H541.226C545.577 172.753 549.104 169.227 549.104 164.878V123.297C549.104 118.947 545.577 115.422 541.226 115.422L439.425 115.422C435.074 115.422 431.547 118.947 431.547 123.297V164.878C431.547 169.227 435.074 172.753 439.425 172.753Z" fill="#DBE5E5"/>
<path d="M431.001 164.878C431.001 169.226 434.565 172.746 438.951 172.746H541.698C546.089 172.746 549.649 169.22 549.649 164.878" stroke="white" stroke-width="6" stroke-linecap="round" stroke-linejoin="round"/>
<path d="M431.001 169.48C431.001 173.828 434.565 177.347 438.951 177.347H541.698C546.089 177.347 549.649 173.822 549.649 169.48" stroke="white" stroke-width="6" stroke-linecap="round" stroke-linejoin="round"/>
<path d="M446.086 165.775H534.563C538.913 165.775 542.44 162.249 542.44 157.899V130.09C542.44 125.74 538.913 122.214 534.563 122.214L446.086 122.214C441.736 122.214 438.209 125.74 438.209 130.09V157.899C438.209 162.249 441.736 165.775 446.086 165.775Z" fill="#423C52"/>
<path d="M501.355 200.665V224.809L499.196 223.689L497.05 224.795L494.905 223.689L492.76 224.795L490.615 223.689L488.469 224.795L486.323 223.689L484.179 224.795L482.033 223.689L479.874 224.809V195.158H495.846V200.665H501.355Z" stroke="white" stroke-width="7" stroke-linecap="round" stroke-linejoin="round"/>
<path d="M501.355 200.23V200.665H495.846V195.158H496.281L501.355 200.23Z" stroke="white" stroke-width="7" stroke-linecap="round" stroke-linejoin="round"/>
<path d="M501.355 200.665H495.846V195.158L501.355 200.665Z" fill="white"/>
<path d="M324.771 277.339H419.94L431.234 165.478H313.478L324.771 277.339Z" fill="#5BC17F"/>
<path d="M321.456 172.753H423.257C427.608 172.753 431.135 169.227 431.135 164.878V123.297C431.135 118.947 427.608 115.422 423.257 115.422L321.456 115.422C317.106 115.422 313.579 118.947 313.579 123.297V164.878C313.579 169.227 317.106 172.753 321.456 172.753Z" fill="white" stroke="#5BC17F" stroke-width="5" stroke-miterlimit="10"/>
<path d="M313.577 169.48C313.577 170.514 313.781 171.537 314.177 172.492C314.573 173.447 315.153 174.315 315.885 175.046C316.617 175.776 317.485 176.356 318.441 176.751C319.396 177.146 320.421 177.348 321.455 177.347H423.257C425.344 177.347 427.346 176.518 428.822 175.043C430.298 173.568 431.127 171.566 431.127 169.48" stroke="white" stroke-width="5" stroke-miterlimit="10"/>
<path d="M328.118 165.775H416.594C420.945 165.775 424.472 162.249 424.472 157.899V130.09C424.472 125.74 420.945 122.214 416.594 122.214L328.118 122.214C323.767 122.214 320.24 125.74 320.24 130.09V157.899C320.24 162.249 323.767 165.775 328.118 165.775Z" fill="#423C52"/>
<path d="M380.927 199.104V197.487C380.927 196.297 380.454 195.156 379.613 194.315C378.771 193.474 377.63 193.001 376.439 193.001H374.674V189.236C374.674 189.202 374.674 189.17 374.674 189.136C374.674 188.058 373.444 187.183 371.927 187.183C370.409 187.183 369.179 188.058 369.179 189.136C369.179 189.17 369.179 189.202 369.179 189.236V193.001H367.414C366.224 193.001 365.082 193.474 364.241 194.315C363.399 195.156 362.926 196.297 362.926 197.487V199.104C362.926 199.784 363.197 200.437 363.678 200.919C364.16 201.4 364.813 201.67 365.494 201.67H364.704C364.231 201.67 363.778 201.858 363.444 202.192C363.11 202.526 362.922 202.979 362.922 203.452V206.324C362.922 206.797 363.11 207.25 363.444 207.584C363.778 207.918 364.231 208.106 364.704 208.106H379.139C379.612 208.106 380.065 207.918 380.399 207.584C380.733 207.25 380.921 206.797 380.921 206.324V203.452C380.921 202.979 380.733 202.526 380.399 202.192C380.065 201.858 379.612 201.67 379.139 201.67H378.365C379.045 201.669 379.697 201.398 380.177 200.917C380.657 200.435 380.927 199.783 380.927 199.104ZM371.927 190.754C370.859 190.754 369.996 190.126 369.996 189.351C369.996 188.576 370.862 187.949 371.927 187.949C372.991 187.949 373.857 188.577 373.857 189.351C373.857 190.124 372.996 190.754 371.927 190.754Z" fill="white"/>
<path d="M380.927 210.602V231.195C380.928 231.344 380.9 231.492 380.844 231.631C380.788 231.769 380.705 231.895 380.6 232.001C380.495 232.107 380.37 232.192 380.233 232.25C380.095 232.308 379.948 232.338 379.798 232.339H378.455C378.242 232.338 378.034 232.277 377.854 232.163C377.675 232.049 377.531 231.886 377.44 231.694C377.42 231.622 377.393 231.554 377.366 231.486C377.202 231.132 376.939 230.833 376.609 230.625C376.279 230.417 375.895 230.31 375.505 230.315C375.115 230.321 374.735 230.44 374.411 230.657C374.087 230.874 373.832 231.181 373.679 231.539V231.553C373.67 231.578 373.661 231.602 373.651 231.627C373.651 231.633 373.651 231.639 373.651 231.645C373.567 231.851 373.423 232.028 373.238 232.153C373.052 232.277 372.834 232.344 372.611 232.344H371.275C371.056 232.343 370.843 232.279 370.66 232.159C370.477 232.039 370.333 231.869 370.246 231.668C370.231 231.619 370.213 231.573 370.194 231.52C370.037 231.162 369.779 230.857 369.452 230.643C369.125 230.429 368.743 230.314 368.352 230.313C367.961 230.312 367.578 230.425 367.25 230.638C366.921 230.85 366.662 231.154 366.504 231.511C366.482 231.559 366.463 231.609 366.447 231.66C366.392 231.784 366.314 231.898 366.219 231.995C366.114 232.101 365.99 232.185 365.853 232.242C365.717 232.3 365.57 232.329 365.421 232.329H364.085C363.783 232.327 363.495 232.205 363.283 231.99C363.072 231.776 362.954 231.486 362.956 231.185V210.602C362.956 209.941 363.219 209.306 363.687 208.838C364.155 208.37 364.79 208.107 365.452 208.107H378.46C379.117 208.115 379.744 208.382 380.206 208.849C380.668 209.316 380.927 209.946 380.927 210.602Z" fill="white"/>
<path d="M371.927 196.062C370.237 196.062 368.808 195.32 368.456 194.245L368.437 194.189V192.832H369.179V194.059C369.463 194.779 370.627 195.315 371.927 195.315C373.226 195.315 374.392 194.779 374.674 194.059V192.562H375.416V194.184L375.398 194.241C375.045 195.314 373.614 196.062 371.927 196.062Z" fill="#5BC17F"/>
<path d="M379.85 202.036H364.009C363.91 202.036 363.816 201.996 363.746 201.927C363.677 201.857 363.638 201.763 363.638 201.664C363.638 201.566 363.677 201.472 363.746 201.402C363.816 201.332 363.91 201.293 364.009 201.293H379.85C379.949 201.293 380.043 201.332 380.113 201.402C380.183 201.472 380.222 201.566 380.222 201.664C380.222 201.763 380.183 201.857 380.113 201.927C380.043 201.996 379.949 202.036 379.85 202.036Z" fill="#5BC17F"/>
<path d="M379.85 208.716H364.009C363.91 208.716 363.816 208.677 363.746 208.607C363.677 208.537 363.638 208.443 363.638 208.345C363.638 208.246 363.677 208.152 363.746 208.082C363.816 208.012 363.91 207.973 364.009 207.973H379.85C379.949 207.973 380.043 208.012 380.113 208.082C380.183 208.152 380.222 208.246 380.222 208.345C380.222 208.443 380.183 208.537 380.113 208.607C380.043 208.677 379.949 208.716 379.85 208.716Z" fill="#5BC17F"/>
<path d="M205.873 277.339L194.598 165.478H312.154L300.881 277.339" stroke="#DBE5E5" stroke-width="6" stroke-miterlimit="10"/>
<path d="M311.661 169.48C311.661 173.828 308.164 177.347 303.851 177.347H202.904C198.59 177.347 195.093 173.822 195.093 169.48" stroke="#DBE5E5" stroke-width="6" stroke-miterlimit="10"/>
<path d="M304.277 115.42H202.476C198.125 115.42 194.598 118.946 194.598 123.295V164.876C194.598 169.226 198.125 172.752 202.476 172.752H304.277C308.627 172.752 312.154 169.226 312.154 164.876V123.295C312.154 118.946 308.627 115.42 304.277 115.42Z" fill="white" stroke="#DBE5E5" stroke-width="6" stroke-miterlimit="10"/>
<path d="M297.615 122.216H209.139C204.788 122.216 201.261 125.742 201.261 130.091V157.901C201.261 162.25 204.788 165.776 209.139 165.776H297.615C301.966 165.776 305.493 162.25 305.493 157.901V130.091C305.493 125.742 301.966 122.216 297.615 122.216Z" fill="#423C52"/>
<path d="M256.847 195.747V211.78C256.847 214.101 253.922 215.982 250.314 215.982C246.705 215.982 243.78 214.101 243.78 211.78V195.747C243.78 198.069 246.704 199.95 250.314 199.95C253.923 199.95 256.847 198.069 256.847 195.747Z" fill="#DBE5E5"/>
<path d="M256.358 195.719V195.747C256.358 198.069 253.652 199.95 250.314 199.95C246.976 199.95 244.27 198.069 244.27 195.747V195.719C244.292 193.411 246.989 191.545 250.314 191.545C253.639 191.545 256.335 193.411 256.358 195.719Z" stroke="#DBE5E5" stroke-width="6" stroke-miterlimit="10"/>
<path d="M250.313 215.982V228.423" stroke="#DBE5E5" stroke-width="6" stroke-miterlimit="10"/>
<path d="M254.846 228.423H245.78" stroke="#DBE5E5" stroke-width="6" stroke-miterlimit="10"/>
<path d="M183.406 277.339H87.9966L76.6738 165.478H194.727L183.406 277.339Z" fill="#DBE5E5"/>
<path d="M186.602 115.42H84.801C80.4503 115.42 76.9233 118.946 76.9233 123.295V164.876C76.9233 169.226 80.4503 172.752 84.801 172.752H186.602C190.953 172.752 194.48 169.226 194.48 164.876V123.295C194.48 118.946 190.953 115.42 186.602 115.42Z" fill="white" stroke="#5BC17F" stroke-width="5" stroke-miterlimit="10"/>
<path d="M194.95 169.48C194.95 173.828 191.395 177.347 187.01 177.347H84.4C80.0135 177.347 76.4585 173.822 76.4585 169.48" stroke="white" stroke-width="6" stroke-linecap="round" stroke-linejoin="round"/>
<path d="M179.939 122.216H91.4626C87.1119 122.216 83.585 125.742 83.585 130.091V157.901C83.585 162.25 87.1119 165.776 91.4626 165.776H179.939C184.29 165.776 187.817 162.25 187.817 157.901V130.091C187.817 125.742 184.29 122.216 179.939 122.216Z" fill="#423C52"/>
<path d="M146.713 207.411C146.713 212.535 143.339 216.69 139.177 216.69C138.681 216.69 138.186 216.631 137.704 216.513C136.301 216.171 134.837 216.171 133.435 216.513C132.951 216.631 132.456 216.69 131.958 216.69C127.801 216.69 124.422 212.534 124.422 207.411C124.422 202.288 127.795 198.13 131.958 198.13C133.248 198.136 134.506 198.53 135.568 199.26C136.631 198.53 137.888 198.137 139.177 198.13C143.335 198.13 146.713 202.285 146.713 207.411Z" fill="white"/>
<path d="M135.564 199.26V193.25" stroke="white" stroke-width="7" stroke-linecap="round" stroke-linejoin="round"/>
<path d="M142.353 192.136C142.318 192.927 142.102 193.7 141.721 194.395C141.34 195.089 140.804 195.687 140.155 196.141C139.506 196.596 138.761 196.896 137.978 197.017C137.195 197.138 136.394 197.077 135.638 196.84C135.675 196.049 135.892 195.277 136.274 194.584C136.655 193.89 137.191 193.293 137.84 192.839C138.488 192.386 139.233 192.086 140.015 191.965C140.798 191.844 141.597 191.904 142.353 192.14V192.136Z" fill="white"/>
<path d="M573.848 278H429.745C429.745 278 435.036 260.198 455.031 259.403C475.026 258.607 498.016 271.547 498.016 271.547C498.016 271.547 501.666 229.059 536.023 226.669C570.38 224.279 573.848 278 573.848 278Z" fill="#429F63"/>
<path d="M600.225 267.3C595.607 273.899 588.595 278 588.595 278H515.981C507.843 261.392 508.185 239.281 509.922 229.939C510.449 227.108 513.995 226.079 515.929 228.217C527.603 241.098 538.899 268.836 538.899 268.836C541.572 239.024 557.427 211.319 566.006 198.256C568.263 194.818 573.554 195.747 574.489 199.751C580.693 226.29 568.797 251.572 568.352 252.507C573.467 242.572 582.061 235.215 587.894 231.036C590.592 229.106 594.331 231.156 594.15 234.47C593.407 248.143 587.857 259.348 582.695 266.963C586.924 263.994 591.68 262.098 595.614 260.905C599.41 259.755 602.5 264.051 600.225 267.3Z" fill="#36B663"/>
<path d="M570.612 196.637C570.612 196.637 563.754 245.413 549.123 277.485" stroke="#429F63" stroke-width="5" stroke-miterlimit="10" stroke-linecap="round"/>
<path d="M591.876 231.489C591.876 231.489 572.572 270.789 558.995 277.485" stroke="#429F63" stroke-width="5" stroke-miterlimit="10" stroke-linecap="round"/>
<path d="M512.999 228.238C512.999 228.238 520.4 265.679 529.215 277.485" stroke="#429F63" stroke-width="5" stroke-miterlimit="10" stroke-linecap="round"/>
<path d="M587.292 216.359C589.196 216.359 590.739 214.817 590.739 212.914C590.739 211.011 589.196 209.468 587.292 209.468C585.389 209.468 583.846 211.011 583.846 212.914C583.846 214.817 585.389 216.359 587.292 216.359Z" stroke="#429F63" stroke-width="5" stroke-miterlimit="10"/>
<path d="M493.265 257.289C494.889 257.289 496.206 255.973 496.206 254.35C496.206 252.726 494.889 251.41 493.265 251.41C491.642 251.41 490.325 252.726 490.325 254.35C490.325 255.973 491.642 257.289 493.265 257.289Z" stroke="#429F63" stroke-width="5" stroke-miterlimit="10"/>
<path d="M561.003 207.167L566.117 220.479L575.518 209.468" stroke="#429F63" stroke-width="5" stroke-miterlimit="10" stroke-linecap="round"/>
<path d="M556.979 214.484L563.512 231.489L575.523 217.424" stroke="#429F63" stroke-width="5" stroke-miterlimit="10" stroke-linecap="round"/>
<path d="M572.433 247.104V264.457H583.411" stroke="#429F63" stroke-width="5" stroke-miterlimit="10" stroke-linecap="round"/>
<path d="M529.866 251.553L525.78 271.547L510.743 255.781" stroke="#429F63" stroke-width="5" stroke-miterlimit="10" stroke-linecap="round"/>
<path d="M158.107 269.193C170.332 269.193 180.242 259.286 180.242 247.065C180.242 234.845 170.332 224.938 158.107 224.938C145.883 224.938 135.973 234.845 135.973 247.065C135.973 259.286 145.883 269.193 158.107 269.193Z" fill="#36B663"/>
<path d="M146.232 253.829L171.675 230.46" stroke="#429F63" stroke-width="5" stroke-miterlimit="10" stroke-linecap="round"/>
<path d="M163.018 226.224L161.212 240.069" stroke="#429F63" stroke-width="5" stroke-miterlimit="10" stroke-linecap="round"/>
<path d="M157.209 243.746L178.249 239.161" stroke="#429F63" stroke-width="5" stroke-miterlimit="10" stroke-linecap="round"/>
<path d="M174.837 233.563L172.32 240.454" stroke="#429F63" stroke-width="5" stroke-miterlimit="10" stroke-linecap="round"/>
<path d="M150.224 226.961L149.178 251.121" stroke="#429F63" stroke-width="5" stroke-miterlimit="10" stroke-linecap="round"/>
<path d="M145.335 229.464L149.698 239.104" stroke="#429F63" stroke-width="5" stroke-miterlimit="10" stroke-linecap="round"/>
<path d="M179.452 248.018L155.326 261.033" stroke="#429F63" stroke-width="5" stroke-miterlimit="10" stroke-linecap="round"/>
<path d="M222.931 277.371H0C0.479639 273.906 3.90988 258.851 27.3454 260.056C27.3454 260.056 32.3482 212.422 81.3709 209.501C140.998 205.938 156.116 261.392 156.116 261.392C156.116 261.392 211.811 247.67 222.931 277.371Z" fill="#429F63"/>
<path d="M61.5243 277.371C61.5243 277.371 40.7097 255.671 60.3007 245.752C74.7107 238.451 76.7272 273.884 76.7272 273.884C76.7272 273.884 76.5535 255.889 82.3196 256.588C88.0856 257.287 82.3196 275.989 82.3196 275.989C82.3196 275.989 94.1992 266.191 98.5724 271.264C102.946 276.336 87.5629 277.378 87.5629 277.378L61.5243 277.371Z" fill="#36B663"/>
<path d="M504.587 77.5128C502.995 77.5129 501.454 78.072 500.232 79.0925C499.011 80.113 498.187 81.5299 497.904 83.0959L488.698 134.132C488.496 135.095 488.511 136.091 488.743 137.048C488.975 138.004 489.417 138.897 490.037 139.661C490.658 140.425 491.441 141.041 492.33 141.465C493.219 141.888 494.191 142.108 495.175 142.108H471.793C470.809 142.108 469.837 141.888 468.948 141.465C468.059 141.041 467.276 140.425 466.655 139.661C466.035 138.897 465.592 138.004 465.361 137.048C465.129 136.091 465.114 135.095 465.316 134.132L474.522 83.0959C474.805 81.5299 475.629 80.113 476.85 79.0925C478.072 78.072 479.613 77.5129 481.205 77.5128H504.587Z" fill="#5BC17F"/>
<path d="M500.041 81.7198C500.58 78.9201 503.39 77.5128 506.187 77.5128H504.587C502.995 77.5129 501.454 78.072 500.232 79.0925C499.011 80.113 498.187 81.5299 497.904 83.0959L488.698 134.132C488.496 135.095 488.511 136.091 488.743 137.048C488.974 138.004 489.417 138.897 490.037 139.661C490.658 140.425 491.441 141.041 492.33 141.465C493.218 141.888 494.19 142.108 495.175 142.108H502.851C503.835 142.108 504.807 141.888 505.696 141.465C506.585 141.041 507.368 140.425 507.989 139.661C508.609 138.897 509.051 138.004 509.283 137.048C509.515 136.091 509.53 135.095 509.328 134.132L500.041 81.7198Z" fill="#429F63"/>
<path d="M499.11 79.6504V133.24L506.516 141.002" stroke="#5BC17F" stroke-width="5" stroke-miterlimit="10"/>
<path d="M491.63 141.217L499.11 133.24" stroke="#5BC17F" stroke-width="5" stroke-miterlimit="10"/>
<path d="M532.058 91.4905C530.682 91.7132 530.35 86.7403 530.35 86.7403C529.311 71.3419 535.984 60.5959 537.768 58.436C538.877 57.1178 539.939 56.2716 540.871 56.4379C543.148 56.8461 544.086 65.6252 541.592 75.2698C539.799 82.2037 534.547 91.0897 532.058 91.4905Z" fill="#423C52"/>
<path d="M531.982 91.0615L572.545 119.125C577.066 121.797 586.082 107.348 585.631 91.8468C585.179 76.346 579.523 63.9968 571.375 62.3817L540.868 56.8417C540.868 56.8417 544.639 64.2566 540.815 76.1397C536.927 88.2396 531.982 91.0615 531.982 91.0615Z" stroke="#423C52" stroke-width="5" stroke-linejoin="round"/>
<path d="M547.513 98.2077C548.535 98.2077 549.364 97.3796 549.364 96.3581C549.364 95.3365 548.535 94.5084 547.513 94.5084C546.491 94.5084 545.663 95.3365 545.663 96.3581C545.663 97.3796 546.491 98.2077 547.513 98.2077Z" fill="#DBE5E5"/>
<path d="M556.157 98.2077C557.179 98.2077 558.008 97.3796 558.008 96.3581C558.008 95.3365 557.179 94.5084 556.157 94.5084C555.136 94.5084 554.307 95.3365 554.307 96.3581C554.307 97.3796 555.136 98.2077 556.157 98.2077Z" fill="#DBE5E5"/>
<path d="M566.594 82.4175C567.616 82.4175 568.444 81.5894 568.444 80.5679C568.444 79.5464 567.616 78.7183 566.594 78.7183C565.572 78.7183 564.744 79.5464 564.744 80.5679C564.744 81.5894 565.572 82.4175 566.594 82.4175Z" fill="#DBE5E5"/>
<path d="M566.121 98.2077C567.143 98.2077 567.972 97.3796 567.972 96.3581C567.972 95.3365 567.143 94.5084 566.121 94.5084C565.099 94.5084 564.271 95.3365 564.271 96.3581C564.271 97.3796 565.099 98.2077 566.121 98.2077Z" fill="#DBE5E5"/>
<path d="M565.824 111.569C566.846 111.569 567.675 110.741 567.675 109.72C567.675 108.698 566.846 107.87 565.824 107.87C564.803 107.87 563.974 108.698 563.974 109.72C563.974 110.741 564.803 111.569 565.824 111.569Z" fill="#DBE5E5"/>
<path d="M578.473 82.4175C579.495 82.4175 580.324 81.5894 580.324 80.5679C580.324 79.5464 579.495 78.7183 578.473 78.7183C577.451 78.7183 576.623 79.5464 576.623 80.5679C576.623 81.5894 577.451 82.4175 578.473 82.4175Z" fill="#DBE5E5"/>
<path d="M578.001 98.2077C579.023 98.2077 579.851 97.3796 579.851 96.3581C579.851 95.3365 579.023 94.5084 578.001 94.5084C576.979 94.5084 576.151 95.3365 576.151 96.3581C576.151 97.3796 576.979 98.2077 578.001 98.2077Z" fill="#DBE5E5"/>
<path d="M577.704 111.569C578.726 111.569 579.555 110.741 579.555 109.72C579.555 108.698 578.726 107.87 577.704 107.87C576.682 107.87 575.854 108.698 575.854 109.72C575.854 110.741 576.682 111.569 577.704 111.569Z" fill="#DBE5E5"/>
<path d="M553.685 103.022C553.685 103.391 553.575 103.752 553.369 104.057C553.162 104.363 552.869 104.6 552.527 104.738L549.986 103C550.002 102.518 550.206 102.062 550.553 101.728C550.9 101.395 551.364 101.209 551.846 101.212C552.328 101.215 552.79 101.406 553.133 101.744C553.476 102.082 553.674 102.54 553.685 103.022Z" fill="#DBE5E5"/>
<path d="M560.48 105.311C561.502 105.311 562.33 104.483 562.33 103.461C562.33 102.44 561.502 101.612 560.48 101.612C559.458 101.612 558.63 102.44 558.63 103.461C558.63 104.483 559.458 105.311 560.48 105.311Z" fill="#DBE5E5"/>
<path d="M572.257 74.1208C573.279 74.1208 574.108 73.2927 574.108 72.2711C574.108 71.2496 573.279 70.4215 572.257 70.4215C571.236 70.4215 570.407 71.2496 570.407 72.2711C570.407 73.2927 571.236 74.1208 572.257 74.1208Z" fill="#DBE5E5"/>
<path d="M572.386 90.1694C573.408 90.1694 574.237 89.3413 574.237 88.3197C574.237 87.2982 573.408 86.4701 572.386 86.4701C571.365 86.4701 570.536 87.2982 570.536 88.3197C570.536 89.3413 571.365 90.1694 572.386 90.1694Z" fill="#DBE5E5"/>
<path d="M582.632 90.1694C583.654 90.1694 584.483 89.3413 584.483 88.3197C584.483 87.2982 583.654 86.4701 582.632 86.4701C581.611 86.4701 580.782 87.2982 580.782 88.3197C580.782 89.3413 581.611 90.1694 582.632 90.1694Z" fill="#DBE5E5"/>
<path d="M571.914 105.162C572.936 105.162 573.764 104.334 573.764 103.313C573.764 102.291 572.936 101.463 571.914 101.463C570.892 101.463 570.064 102.291 570.064 103.313C570.064 104.334 570.892 105.162 571.914 105.162Z" fill="#DBE5E5"/>
<path d="M571.914 117.78C572.936 117.78 573.764 116.952 573.764 115.931C573.764 114.909 572.936 114.081 571.914 114.081C570.892 114.081 570.064 114.909 570.064 115.931C570.064 116.952 570.892 117.78 571.914 117.78Z" fill="#DBE5E5"/>
<path d="M547.392 82.4175C548.414 82.4175 549.242 81.5894 549.242 80.5679C549.242 79.5464 548.414 78.7183 547.392 78.7183C546.37 78.7183 545.542 79.5464 545.542 80.5679C545.542 81.5894 546.37 82.4175 547.392 82.4175Z" fill="#DBE5E5"/>
<path d="M556.63 82.4175C557.651 82.4175 558.48 81.5894 558.48 80.5679C558.48 79.5464 557.651 78.7183 556.63 78.7183C555.608 78.7183 554.779 79.5464 554.779 80.5679C554.779 81.5894 555.608 82.4175 556.63 82.4175Z" fill="#DBE5E5"/>
<path d="M552.308 90.1694C553.33 90.1694 554.159 89.3413 554.159 88.3197C554.159 87.2982 553.33 86.4701 552.308 86.4701C551.286 86.4701 550.458 87.2982 550.458 88.3197C550.458 89.3413 551.286 90.1694 552.308 90.1694Z" fill="#DBE5E5"/>
<path d="M541.865 89.6973C542.887 89.6973 543.715 88.8692 543.715 87.8477C543.715 86.8262 542.887 85.998 541.865 85.998C540.843 85.998 540.015 86.8262 540.015 87.8477C540.015 88.8692 540.843 89.6973 541.865 89.6973Z" fill="#DBE5E5"/>
<path d="M536.43 93.591C536.748 93.2364 537.185 93.0091 537.658 92.951C538.131 92.8929 538.61 93.0079 539.005 93.2748C539.844 93.8582 540.044 95.0102 539.469 95.7004L536.43 93.591Z" fill="#DBE5E5"/>
<path d="M561.547 90.1694C562.568 90.1694 563.397 89.3413 563.397 88.3197C563.397 87.2982 562.568 86.4701 561.547 86.4701C560.525 86.4701 559.696 87.2982 559.696 88.3197C559.696 89.3413 560.525 90.1694 561.547 90.1694Z" fill="#DBE5E5"/>
<path d="M547.114 66.6287C548.136 66.6287 548.964 65.8006 548.964 64.7791C548.964 63.7576 548.136 62.9294 547.114 62.9294C546.092 62.9294 545.264 63.7576 545.264 64.7791C545.264 65.8006 546.092 66.6287 547.114 66.6287Z" fill="#DBE5E5"/>
<path d="M556.502 66.6287C557.524 66.6287 558.352 65.8006 558.352 64.7791C558.352 63.7576 557.524 62.9294 556.502 62.9294C555.48 62.9294 554.652 63.7576 554.652 64.7791C554.652 65.8006 555.48 66.6287 556.502 66.6287Z" fill="#DBE5E5"/>
<path d="M566.594 66.7579C567.616 66.7579 568.444 65.9298 568.444 64.9082C568.444 63.8867 567.616 63.0586 566.594 63.0586C565.572 63.0586 564.744 63.8867 564.744 64.9082C564.744 65.9298 565.572 66.7579 566.594 66.7579Z" fill="#DBE5E5"/>
<path d="M552.179 74.1208C553.201 74.1208 554.03 73.2927 554.03 72.2711C554.03 71.2496 553.201 70.4215 552.179 70.4215C551.157 70.4215 550.329 71.2496 550.329 72.2711C550.329 73.2927 551.157 74.1208 552.179 74.1208Z" fill="#DBE5E5"/>
<path d="M542.67 70.0786C542.914 70.1158 543.148 70.2014 543.358 70.3303C543.568 70.4593 543.751 70.629 543.895 70.8294C544.038 71.0299 544.141 71.2571 544.195 71.4976C544.25 71.7382 544.256 71.9872 544.213 72.2301C544.17 72.473 544.078 72.7048 543.944 72.9119C543.81 73.119 543.636 73.2972 543.432 73.436C543.228 73.5748 542.999 73.6715 542.757 73.7202C542.515 73.769 542.266 73.7689 542.024 73.72L542.67 70.0786Z" fill="#DBE5E5"/>
<path d="M560.823 74.1208C561.845 74.1208 562.674 73.2927 562.674 72.2711C562.674 71.2496 561.845 70.4215 560.823 70.4215C559.802 70.4215 558.973 71.2496 558.973 72.2711C558.973 73.2927 559.802 74.1208 560.823 74.1208Z" fill="#DBE5E5"/>
<path d="M554.035 59.6517C553.993 59.8953 553.902 60.1279 553.769 60.3361C553.636 60.5444 553.462 60.7241 553.259 60.8647C553.056 61.0054 552.826 61.1043 552.584 61.1557C552.343 61.2071 552.093 61.2099 551.85 61.1639C551.607 61.118 551.375 61.0243 551.169 60.8882C550.963 60.7521 550.785 60.5763 550.647 60.3711C550.509 60.1659 550.414 59.9354 550.366 59.6929C550.318 59.4504 550.318 59.2007 550.368 58.9585L554.035 59.6517Z" fill="#DBE5E5"/>
<path d="M540.999 74.4326C539.284 81.3279 536.611 86.9614 534.231 89.1852L529.758 86.2905L515.294 76.9294L513.497 80.8276C512.988 81.6783 512.27 82.3844 511.411 82.8782C510.552 83.372 509.58 83.6371 508.589 83.6481L502.838 83.7223C502.684 83.7243 502.531 83.6958 502.389 83.6385C502.246 83.5811 502.116 83.4961 502.006 83.3883C501.897 83.2805 501.81 83.1521 501.75 83.0104C501.69 82.8688 501.659 82.7167 501.659 82.563C501.655 81.5957 501.933 80.6483 502.459 79.8362C502.985 79.0241 503.736 78.3824 504.62 77.9893L506.167 77.302L506.038 75.4331C506.037 74.6684 505.733 73.9351 505.192 73.3945C504.651 72.854 503.917 72.5503 503.153 72.5503H497.796C497.317 72.5501 496.846 72.6693 496.424 72.8971C496.003 73.1249 495.645 73.4542 495.383 73.8551L493.304 81.2285C493.741 81.8241 494.054 82.5021 494.222 83.2215C494.39 83.941 494.411 84.687 494.283 85.4146L494.041 86.7922C494.014 86.9507 493.948 87.0998 493.848 87.2254C493.747 87.351 493.617 87.4491 493.468 87.5103C493.32 87.5715 493.158 87.5938 492.998 87.5752C492.839 87.5566 492.686 87.4976 492.556 87.4038L480.571 78.9735C479.483 78.1671 478.693 77.0234 478.325 75.7209C477.956 74.4185 478.029 73.0306 478.532 71.7739L485.185 59.8655C485.842 58.4423 486.86 57.216 488.139 56.3088C489.418 55.4017 490.912 54.8453 492.473 54.6951L514.171 52.6021C515.601 52.602 517.025 52.7831 518.409 53.1409L537.176 57.9892L542.225 59.2925C542.92 62.6118 542.536 68.2557 540.999 74.4326Z" fill="white"/>
<path d="M486.586 67.3695L483.055 75.0041C482.552 76.2608 482.479 77.6487 482.848 78.9511C483.216 80.2536 484.006 81.3973 485.094 82.2038" stroke="#D2AE52" stroke-width="5" stroke-linecap="round" stroke-linejoin="round"/>
<path d="M490.986 70.3444L487.461 77.9804C486.958 79.237 486.885 80.6247 487.254 81.927C487.622 83.2293 488.411 84.3731 489.498 85.1801" stroke="#D2AE52" stroke-width="5" stroke-linecap="round" stroke-linejoin="round"/>
<path d="M515.034 76.7498L517.944 70.0861L527.782 84.9203L515.034 76.7498Z" fill="#D2AE52"/>
<g style="mix-blend-mode:multiply">
<path d="M540.999 74.4326C539.284 81.3279 536.611 86.9615 534.231 89.1852L529.758 86.2905C529.271 82.9044 529.709 77.6672 531.123 71.9773C532.667 65.7678 534.984 60.5796 537.176 57.9862L542.224 59.2896C542.919 62.6118 542.536 68.2557 540.999 74.4326Z" fill="#DBE5E5"/>
</g>
<path d="M540.999 74.4326C539.284 81.3279 536.611 86.9614 534.231 89.1852L529.758 86.2905L515.294 76.9294L513.497 80.8276C512.988 81.6783 512.27 82.3844 511.411 82.8782C510.552 83.372 509.58 83.6371 508.589 83.6481L502.838 83.7223C502.684 83.7243 502.531 83.6958 502.389 83.6385C502.246 83.5811 502.116 83.4961 502.006 83.3883C501.897 83.2805 501.81 83.1521 501.75 83.0104C501.69 82.8688 501.659 82.7167 501.659 82.563C501.655 81.5957 501.933 80.6483 502.459 79.8362C502.985 79.0241 503.736 78.3824 504.62 77.9893L506.167 77.302L506.038 75.4331C506.037 74.6684 505.733 73.9351 505.192 73.3945C504.651 72.854 503.917 72.5503 503.153 72.5503H497.796C497.317 72.5501 496.846 72.6693 496.424 72.8971C496.003 73.1249 495.645 73.4542 495.383 73.8551L493.304 81.2285C493.741 81.8241 494.054 82.5021 494.222 83.2215C494.39 83.941 494.411 84.687 494.283 85.4146L494.041 86.7922C494.014 86.9507 493.948 87.0998 493.848 87.2254C493.747 87.351 493.617 87.4491 493.468 87.5103C493.32 87.5715 493.158 87.5938 492.998 87.5752C492.839 87.5566 492.686 87.4976 492.556 87.4038L480.571 78.9735C479.483 78.1671 478.693 77.0234 478.325 75.7209C477.956 74.4185 478.029 73.0306 478.532 71.7739L485.185 59.8655C485.842 58.4423 486.86 57.216 488.139 56.3088C489.418 55.4017 490.912 54.8453 492.473 54.6951L514.171 52.6021C515.601 52.602 517.025 52.7831 518.409 53.1409L537.176 57.9892L542.225 59.2925C542.92 62.6118 542.536 68.2557 540.999 74.4326Z" stroke="#D2AE52" stroke-width="5" stroke-linejoin="round"/>
<path d="M361.703 50.6528L380.913 79.0061L381.33 79.6221C382.404 81.7984 380.865 85.5734 377.567 88.5185C374.269 91.4637 370.344 92.5682 368.301 91.2559L367.735 90.7719L341.713 68.505L361.703 50.6528Z" fill="white" stroke="#B0B0B0" stroke-width="6" stroke-linejoin="round"/>
<path d="M361.703 50.6528C364.833 54.1576 361.737 59.6962 356.218 64.6261C350.698 69.556 344.843 72.0083 341.713 68.505C338.583 65.0017 339.358 56.8653 344.877 51.9354C350.397 47.0055 358.571 47.148 361.703 50.6528Z" fill="white" stroke="#B0B0B0" stroke-width="6" stroke-linejoin="round"/>
<path d="M349.089 56.6543C350.482 55.4113 351.055 53.782 350.37 53.0152C349.685 52.2485 348.001 52.6345 346.609 53.8775C345.216 55.1205 344.643 56.7498 345.328 57.5165C346.013 58.2833 347.697 57.8973 349.089 56.6543Z" fill="white" stroke="#B0B0B0" stroke-width="6" stroke-linejoin="round"/>
<path d="M367.392 76.8032L344.398 51.0655C343.356 49.8995 342.701 48.4391 342.525 46.8856C342.348 45.3321 342.657 43.7621 343.41 42.3918L347.298 35.3302" stroke="#B0B0B0" stroke-width="6" stroke-linecap="round" stroke-linejoin="round"/>
<path d="M451.723 7.51729L444.264 12.8614L381.44 57.9074V63.8215C381.44 64.9223 381.17 66.0062 380.652 66.9775C380.134 67.9489 379.385 68.7779 378.47 69.3912L370.169 74.9505L370.086 74.8021C369.473 73.75 369.108 72.5715 369.02 71.3567C368.932 70.142 369.124 68.9233 369.58 67.7939L371.678 64.6558L363.168 52.0675L361.98 50.3723C360.002 48.1634 355.473 47.1525 351.42 48.0476L384.493 12.7664L389.976 6.91756C397.791 3.2925 409.17 0.547729 422.273 0.547729C435.063 0.552183 446.636 3.95457 451.723 7.51729Z" fill="#D2AE52"/>
<path d="M399.905 44.6674L394.136 48.8046C380.577 43.6907 373.813 33.0471 370.995 27.1864L372.206 25.8934C375.766 30.1806 385.128 39.932 399.905 44.6674Z" fill="#423C52"/>
<path d="M347.253 81.9423C348.536 84.5891 352.396 86.47 355.332 86.2799L359.786 85.9831C360.029 85.9669 360.266 85.9008 360.483 85.7888C360.699 85.6768 360.89 85.5214 361.043 85.3323C361.196 85.1432 361.309 84.9244 361.374 84.6898C361.439 84.4551 361.454 84.2096 361.42 83.9686L359.984 73.8995C359.877 73.158 359.506 72.4798 358.94 71.9891C358.373 71.4984 357.649 71.228 356.9 71.2275H347.929C346.296 71.2275 344.233 70.9306 342.732 70.0978C342.677 70.0665 342.615 70.0531 342.552 70.0596C342.49 70.0661 342.431 70.0921 342.385 70.1339C342.338 70.1758 342.306 70.2313 342.293 70.2925C342.28 70.3537 342.286 70.4176 342.311 70.4749L347.253 81.9423Z" fill="#D2AE52"/>
<path d="M346.198 78.825C347.611 81.7939 350.375 83.4624 353.609 83.2472L358.931 82.9221C360.064 82.8464 360.819 81.684 360.658 80.538" stroke="#423C52" stroke-width="5" stroke-linecap="round" stroke-linejoin="round"/>
<path d="M344.603 75.1138C346.159 78.0827 349.092 79.6147 352.654 79.3994L358.059 79.0743C359.307 78.9986 360.223 77.8155 360.046 76.671" stroke="#423C52" stroke-width="5" stroke-linecap="round" stroke-linejoin="round"/>
<path d="M342.638 70.4377C344.264 73.4067 347.764 75.6259 351.489 75.4107L357.142 75.0856C358.446 75.0099 359.402 73.9693 359.221 72.8233" stroke="#423C52" stroke-width="5" stroke-linecap="round" stroke-linejoin="round"/>
<path opacity="0.5" d="M453.653 12.7664H453.781L405.64 46.1891C382.999 41.2607 371.131 23.9221 371.131 23.9221L381.167 12.7664C386.881 6.71721 402.641 0.553711 422.273 0.553711C441.732 0.552227 458.369 8.42582 453.653 12.7664Z" fill="#5BC17F"/>
<path d="M405.639 46.1891C382.998 41.2607 371.13 23.9221 371.13 23.9221L381.165 12.7664C386.881 6.7172 402.639 0.553711 422.273 0.553711C441.907 0.553711 458.666 8.56982 453.515 12.8748L405.639 46.1891Z" stroke="#5BC17F" stroke-width="5" stroke-miterlimit="10" stroke-linecap="round"/>
<path d="M374.381 20.3075V27.8783C374.106 27.5814 373.85 27.2919 373.611 27.0188V21.1625L374.381 20.3075Z" fill="#5BC17F"/>
<path d="M380.035 14.0208V33.3277C379.772 33.1035 379.517 32.8823 379.266 32.6641V14.8758L380.035 14.0208Z" fill="#5BC17F"/>
<path d="M385.688 9.20374V37.6164C385.428 37.4427 385.173 37.269 384.92 37.0924V9.70103C385.168 9.53626 385.425 9.37296 385.688 9.20374Z" fill="#5BC17F"/>
<path d="M391.344 6.31189V40.9801C391.085 40.845 390.829 40.7084 390.575 40.5718V6.64738C390.828 6.53456 391.084 6.42273 391.344 6.31189Z" fill="#5BC17F"/>
<path d="M396.999 4.23071V43.569C396.739 43.4666 396.481 43.3627 396.227 43.2588V4.47862L396.999 4.23071Z" fill="#5BC17F"/>
<path d="M402.652 2.70325V45.4558C402.394 45.3846 402.139 45.3074 401.883 45.2376V2.88435C402.139 2.82052 402.394 2.76263 402.652 2.70325Z" fill="#5BC17F"/>
<path d="M408.309 1.61951V44.3379L407.538 44.8723V1.7442L407.969 1.67443L408.309 1.61951Z" fill="#5BC17F"/>
<path d="M413.962 0.92627V40.413L413.192 40.9459V0.999008C413.446 0.972288 413.708 0.948536 413.962 0.92627Z" fill="#5BC17F"/>
<path d="M419.615 0.59375V36.4955L418.847 37.0299V0.616017C419.101 0.605626 419.358 0.59375 419.615 0.59375Z" fill="#5BC17F"/>
<path d="M425.271 0.614532V32.575L424.502 33.108V0.59375C424.759 0.59375 425.016 0.604141 425.271 0.614532Z" fill="#5BC17F"/>
<path d="M430.933 1.06291V28.6502L430.163 29.1846V0.976807C430.412 1.00353 430.67 1.03915 430.933 1.06291Z" fill="#5BC17F"/>
<path d="M436.576 1.95352V24.7341L436.321 24.9093L435.806 25.267V1.8125C436.066 1.85258 436.322 1.90305 436.576 1.95352Z" fill="#5BC17F"/>
<path d="M442.234 3.34159V20.8108L441.463 21.3466V3.11743C441.723 3.19067 441.98 3.26538 442.234 3.34159Z" fill="#5BC17F"/>
<path d="M447.888 5.40346V16.8902L447.118 17.4246V5.06946C447.381 5.17931 447.638 5.29064 447.888 5.40346Z" fill="#5BC17F"/>
<path d="M453.542 12.7649V12.9252L452.771 13.4611V12.7649H453.542Z" fill="#5BC17F"/>
<path d="M413.012 41.0692L411.902 41.8397H393.067C392.545 41.5888 392.028 41.3305 391.529 41.0692H413.012Z" fill="#5BC17F"/>
<path d="M421.152 35.4164L420.043 36.1868H383.662C383.31 35.9295 382.964 35.6727 382.622 35.4164H421.152Z" fill="#5BC17F"/>
<path d="M429.291 29.765L428.182 30.5355H376.958C376.688 30.2742 376.427 30.0174 376.177 29.765H429.291Z" fill="#5BC17F"/>
<path d="M437.432 24.1122L436.578 24.706L436.322 24.8826H371.843C371.576 24.5367 371.382 24.274 371.265 24.1122H437.432Z" fill="#5BC17F"/>
<path d="M445.571 18.4608L444.463 19.2298H375.35L376.042 18.4608H445.571Z" fill="#5BC17F"/>
<path d="M453.711 12.808L453.542 12.9253L452.771 13.4611L452.603 13.5769H380.435L381.127 12.808H453.711Z" fill="#5BC17F"/>
<path d="M452.29 7.93594H387.923C388.418 7.67666 388.929 7.42034 389.454 7.16699H451.202C451.599 7.42232 451.961 7.67864 452.29 7.93594Z" fill="#5BC17F"/>
<path d="M263.647 95.3026V131.188C263.647 134.231 258.289 136.698 251.68 136.698C245.07 136.698 239.712 134.231 239.712 131.188V95.3026C239.713 88.9161 241.394 82.6421 244.587 77.1105L247.557 71.9743V62.0402C247.557 60.2114 249.405 58.7284 251.683 58.7284C253.961 58.7284 255.806 60.2129 255.806 62.0402V71.9698L258.776 77.1061C261.969 82.6392 263.649 88.9149 263.647 95.3026Z" fill="white" stroke="#423C52" stroke-width="5" stroke-miterlimit="10"/>
<path d="M260.794 109.234V114.892" stroke="#423C52" stroke-width="5" stroke-miterlimit="10" stroke-linecap="round"/>
<path d="M255.917 77.1061C259.112 82.6386 260.794 88.9144 260.794 95.3026V104.195" stroke="#423C52" stroke-width="5" stroke-miterlimit="10" stroke-linecap="round"/>
<path d="M251.679 64.5861C253.361 64.5861 254.724 63.4915 254.724 62.1412C254.724 60.7909 253.361 59.6963 251.679 59.6963C249.998 59.6963 248.635 60.7909 248.635 62.1412C248.635 63.4915 249.998 64.5861 251.679 64.5861Z" fill="#423C52"/>
<path d="M261.134 130.039C261.134 132.442 256.901 134.392 251.68 134.392C246.459 134.392 242.225 132.435 242.225 130.039C242.225 127.643 246.459 124.327 251.68 124.327C256.901 124.327 261.134 127.627 261.134 130.039Z" fill="white" stroke="#423C52" stroke-width="5" stroke-miterlimit="10"/>
<path d="M272.298 49.7459V60.6329C272.298 62.0337 271.906 63.4065 271.168 64.5968C270.429 65.787 269.372 66.7473 268.117 67.3694L255.94 73.4082C254.427 74.1594 252.847 72.5175 253.655 71.0331L255.934 65.5821C256.274 64.7713 256.326 63.869 256.083 63.0244L254.004 55.899C253.726 55.4011 253.32 54.9864 252.828 54.6978C252.336 54.4092 251.776 54.257 251.206 54.2571H246.775C246.28 54.257 245.79 54.3542 245.333 54.5433C244.876 54.7324 244.461 55.0097 244.111 55.3592C243.761 55.7088 243.484 56.1239 243.294 56.5808C243.105 57.0376 243.008 57.5272 243.008 58.0217V60.6671L245.097 61.8146C246.396 62.5969 247.042 63.9997 247.042 65.5153V67.5372H241.251C234.799 67.5372 231.314 64.2387 227.852 58.7937L220.267 46.8571C222.558 42.5447 230.19 38.0438 239.858 35.7503C244.292 34.6979 248.552 34.2525 252.25 34.3505L268.972 43.9817C269.984 44.5662 270.824 45.4066 271.407 46.4184C271.991 47.4302 272.299 48.5778 272.298 49.7459Z" fill="#D2AE52"/>
<path d="M263.781 69.1879C266.341 67.9187 267.959 65.5881 267.959 62.732V55.1998" fill="#D2AE52"/>
<path d="M263.781 69.1879C266.341 67.9187 267.959 65.5881 267.959 62.732V55.1998" stroke="#423C52" stroke-width="5" stroke-linecap="round" stroke-linejoin="round"/>
<path d="M256.504 73.1039C259.064 71.8346 262.083 68.2452 262.083 65.3846V57.8569" fill="#D2AE52"/>
<path d="M256.504 73.1039C259.064 71.8346 262.083 68.2452 262.083 65.3846V57.8569" stroke="#423C52" stroke-width="5" stroke-linecap="round" stroke-linejoin="round"/>
<path d="M246.947 24.4595C242.59 23.9563 237.059 24.3823 231.244 25.8653C222.928 27.9836 216.161 31.726 213.038 35.5143L196.918 10.0691C193.376 3.9279 205.588 -0.470563 217.37 0.607158C226.688 1.45479 237.405 5.60386 239.877 11.0622L246.947 24.4595Z" fill="white" stroke="#5BC17F" stroke-width="6" stroke-linejoin="round"/>
<path d="M201.46 2.64233V17.1841" stroke="#5BC17F" stroke-width="6" stroke-linecap="round" stroke-linejoin="round"/>
<path d="M206.637 1.3064V25.2968" stroke="#5BC17F" stroke-width="6" stroke-linecap="round" stroke-linejoin="round"/>
<path d="M211.815 0.564087V33.4093" stroke="#5BC17F" stroke-width="6" stroke-linecap="round" stroke-linejoin="round"/>
<path d="M216.991 0.712524V31.9442" stroke="#5BC17F" stroke-width="6" stroke-linecap="round" stroke-linejoin="round"/>
<path d="M222.168 1.3064V29.1238" stroke="#5BC17F" stroke-width="6" stroke-linecap="round" stroke-linejoin="round"/>
<path d="M227.344 2.79077V27.1939" stroke="#5BC17F" stroke-width="6" stroke-linecap="round" stroke-linejoin="round"/>
<path d="M232.522 4.72058V25.561" stroke="#5BC17F" stroke-width="6" stroke-linecap="round" stroke-linejoin="round"/>
<path d="M237.699 8.28333V24.6703" stroke="#5BC17F" stroke-width="6" stroke-linecap="round" stroke-linejoin="round"/>
<path d="M242.875 16.9185V24.317" stroke="#5BC17F" stroke-width="6" stroke-linecap="round" stroke-linejoin="round"/>
<path d="M252.237 34.3445C248.541 34.2481 244.279 34.6934 239.845 35.7459C230.178 38.0394 222.545 42.5403 220.252 46.8526L213.042 35.5069C216.16 31.726 222.934 27.9836 231.248 25.8653C237.064 24.3808 242.594 23.9548 246.952 24.4595L252.145 34.2911L252.237 34.3445Z" fill="white" stroke="#5BC17F" stroke-width="6" stroke-linejoin="round"/>
<path d="M243.893 30.8605C244.919 30.8605 245.75 30.0291 245.75 29.0034C245.75 27.9778 244.919 27.1464 243.893 27.1464C242.867 27.1464 242.035 27.9778 242.035 29.0034C242.035 30.0291 242.867 30.8605 243.893 30.8605Z" stroke="#5BC17F" stroke-width="6" stroke-linecap="round" stroke-linejoin="round"/>
<path d="M140.282 89.3781V129.971C140.282 131.077 140.722 132.138 141.505 132.92C142.287 133.702 143.348 134.142 144.455 134.142H139.712C137.707 134.142 135.785 133.346 134.367 131.929C132.95 130.512 132.153 128.59 132.153 126.586V114.176L131.35 116.106C130.778 117.473 129.697 118.564 128.335 119.149C126.974 119.734 125.438 119.767 124.052 119.242C122.666 118.717 121.539 117.674 120.907 116.334C120.276 114.993 120.19 113.46 120.667 112.058L120.816 111.612C120.816 112.37 121.117 113.096 121.653 113.632C122.188 114.168 122.915 114.468 123.673 114.468H123.97C124.728 114.468 125.455 114.167 125.991 113.632C126.527 113.096 126.828 112.369 126.828 111.611V78.8369C126.828 76.7991 127.638 74.8447 129.08 73.4038C130.521 71.9628 132.476 71.1533 134.515 71.1533V63.1743H139.54V71.1518C140.364 71.1508 141.181 71.3124 141.943 71.6272C142.706 71.9421 143.398 72.404 143.982 72.9866C144.565 73.5693 145.028 74.2611 145.344 75.0227C145.66 75.7843 145.822 76.6007 145.822 77.4252V92.3188C145.822 95.7672 146.249 105.948 151.274 105.848C151.274 105.848 150.733 102.444 154.181 102.508C159.206 102.6 158.765 111.992 149.89 112.055C141.219 112.116 140.031 101.101 140.282 89.3781Z" fill="#D6E432"/>
<path d="M131.864 115.957V78.3797C131.864 77.2091 132.137 76.0547 132.663 75.0088C133.189 73.9628 133.952 73.0543 134.892 72.3557" fill="#D6E432"/>
<path d="M131.864 115.957V78.3797C131.864 77.2091 132.137 76.0547 132.663 75.0088C133.189 73.9628 133.952 73.0543 134.892 72.3557" stroke="white" stroke-width="5" stroke-linecap="round" stroke-linejoin="round"/>
<path d="M150.825 105.249C150.735 107.451 154.621 108.01 154.621 105.842Z" fill="#D6E432"/>
<path d="M150.825 105.249C150.735 107.451 154.621 108.01 154.621 105.842" stroke="white" stroke-width="5" stroke-linecap="round" stroke-linejoin="round"/>
<path d="M94.4119 53.313C94.4119 63.6033 91.2727 71.9549 87.3895 72.0396C83.5064 71.9549 80.3672 63.6033 80.3672 53.313C80.3672 43.0227 83.5064 34.6697 87.3895 34.588C91.2727 34.6697 94.4119 43.0213 94.4119 53.313Z" fill="#423C52"/>
<path d="M73.407 71.7071C69.4941 71.7071 66.3223 63.4713 66.3223 53.3131C66.3223 43.1549 69.4956 34.9176 73.407 34.9176H87.2527C83.3398 34.9176 80.168 43.1534 80.168 53.3131C80.168 63.4728 83.3398 71.7071 87.2527 71.7071H73.407Z" fill="white" stroke="#423C52" stroke-width="5" stroke-miterlimit="10"/>
<path d="M73.4071 34.9176C73.4071 34.9176 71.4944 30.4835 52.4811 29.2766C52.4811 29.2766 38.5122 36.1838 31.6131 52.4907C24.6947 68.845 30.2069 78.3797 30.2069 78.3797C53.5726 79.8879 73.4071 71.7085 73.4071 71.7085" stroke="#423C52" stroke-width="5" stroke-linecap="round" stroke-linejoin="round"/>
<path d="M68.5586 39.9009C68.5586 39.9009 64.9947 38.0067 58.0273 37.6385" stroke="#423C52" stroke-width="5" stroke-linecap="round" stroke-linejoin="round"/>
<path d="M67.8074 42.0444H61.5498" stroke="#423C52" stroke-width="5" stroke-linecap="round" stroke-linejoin="round"/>
<path d="M67.2459 62.6815C65.4482 63.6848 63.5726 64.5417 61.6372 65.2437" stroke="#423C52" stroke-width="5" stroke-linecap="round" stroke-linejoin="round"/>
<path d="M56.2041 61.3514H67.0339" stroke="#423C52" stroke-width="5" stroke-linecap="round" stroke-linejoin="round"/>
<path d="M155.972 52.4744H151.517V59.4217C151.517 59.7504 151.445 60.075 151.304 60.3721C151.163 60.6692 150.958 60.9312 150.703 61.1392L142.884 67.6515C142.629 67.882 142.319 68.0427 141.984 68.1181C141.649 68.1935 141.3 68.181 140.971 68.0818C140.643 67.9826 140.345 67.8001 140.108 67.552C139.87 67.3039 139.701 66.9986 139.617 66.6658L138.101 60.6122C137.728 59.2744 136.926 58.0956 135.82 57.2562C134.713 56.4168 133.361 55.963 131.972 55.9643H127.863C127.037 55.9642 126.241 56.2721 125.631 56.8278C125.02 57.3835 124.638 58.1471 124.561 58.969C124.484 59.791 124.716 60.6122 125.213 61.2719C125.709 61.9316 126.434 62.3824 127.246 62.5361L129.798 63.02C131.189 63.2841 132.443 64.025 133.346 65.115C134.248 66.205 134.742 67.5756 134.742 68.9905H91.5295C88.4853 68.9905 84.1433 61.9423 83.4246 53.3161C82.547 42.763 84.5963 37.6416 87.6404 37.6416H124.259C125.743 37.6411 127.22 37.8541 128.643 38.274L141.088 41.565C142.698 42.0386 143.831 42.6428 145.206 43.6047L156.499 50.5015C156.701 50.6177 156.859 50.7971 156.948 51.012C157.037 51.227 157.053 51.4653 156.993 51.6902C156.933 51.915 156.8 52.1138 156.616 52.2556C156.431 52.3973 156.205 52.4743 155.972 52.4744Z" fill="#D2AE52"/>
<path d="M143.108 42.76L150.111 50.4466C150.768 51.1677 151.132 52.1077 151.133 53.083V59.1693" fill="#D2AE52"/>
<path d="M143.108 42.76L150.111 50.4466C150.768 51.1677 151.132 52.1077 151.133 53.083V59.1693" stroke="#423C52" stroke-width="5" stroke-linecap="round" stroke-linejoin="round"/>
<path d="M140.904 47.9482L146.609 54.3314C147.267 55.0526 147.632 55.9934 147.631 56.9693V63.0482" fill="#D2AE52"/>
<path d="M140.904 47.9482L146.609 54.3314C147.267 55.0526 147.632 55.9934 147.631 56.9693V63.0482" stroke="#423C52" stroke-width="5" stroke-linecap="round" stroke-linejoin="round"/>
<path d="M137.273 51.0552L142.98 57.4384C143.637 58.1601 144.001 59.1006 144.002 60.0763V66.1551" fill="#D2AE52"/>
<path d="M137.273 51.0552L142.98 57.4384C143.637 58.1601 144.001 59.1006 144.002 60.0763V66.1551" stroke="#423C52" stroke-width="5" stroke-linecap="round" stroke-linejoin="round"/>
</g>
<defs>
<clipPath id="clip0_317_149">
<rect width="601" height="278" fill="white"/>
</clipPath>
</defs>
</svg>
