<svg width="581" height="309" viewBox="0 0 581 309" fill="none" xmlns="http://www.w3.org/2000/svg">
<g clip-path="url(#clip0_40_6542)">
<path d="M51.4478 268.151C86.5286 252.982 571.426 265.596 580.577 282.347C594.88 308.528 242.265 317.007 163.753 300.632C124.865 292.521 202.656 291.178 202.048 286.059C200.486 272.908 33.8303 275.768 51.4478 268.151Z" fill="#DBE5E5"/>
<path d="M84.2607 289.533C105.935 289.533 123.505 287.882 123.505 285.845C123.505 283.809 105.935 282.158 84.2607 282.158C62.5868 282.158 45.0166 283.809 45.0166 285.845C45.0166 287.882 62.5868 289.533 84.2607 289.533Z" fill="#DBE5E5"/>
<path d="M244.785 261.702C148.344 260.522 65.2209 262.195 51.4464 268.151C50.4897 268.565 50.0759 268.948 50.1516 269.304C4.08467 262.42 29.9889 255.639 38.2162 254.517C46.8188 253.342 19.3632 188.171 88.2626 188.171C120.178 188.171 123.297 237.618 134.825 237.673C141.085 237.703 147.052 220.491 164.441 223.031C189.419 226.682 173.419 252.467 193.377 248.554C213.335 244.641 209.429 256.382 209.429 256.382C234.069 251.191 242.59 258.908 244.785 261.702Z" fill="#5BC17F"/>
<path d="M102.58 179.805C107.495 179.805 111.479 175.819 111.479 170.902C111.479 165.984 107.495 161.998 102.58 161.998C97.665 161.998 93.6807 165.984 93.6807 170.902C93.6807 175.819 97.665 179.805 102.58 179.805Z" fill="#5BC17F"/>
<path d="M580.537 282.282C576.203 275.292 488.345 268.989 385.871 265.176C396.487 237.688 442.568 254.572 442.568 254.572C442.568 254.572 460.755 209.281 513.744 217.622C557.31 224.48 557.761 265.001 557.761 265.001C580.101 266.152 580.562 280.555 580.537 282.282Z" fill="#5BC17F"/>
<path d="M565.112 259.81C567.569 259.81 569.561 257.817 569.561 255.358C569.561 252.9 567.569 250.906 565.112 250.906C562.654 250.906 560.662 252.9 560.662 255.358C560.662 257.817 562.654 259.81 565.112 259.81Z" fill="#5BC17F"/>
<path d="M455.871 305.358L450.949 298.825L458.233 302.092L450.267 285.74L462.465 300.162L473.68 273.316L468.568 301.202L476.048 297.712L471.246 304.257L455.871 305.358Z" fill="white"/>
<path d="M152.248 261.347L144.163 255.336L153.81 258.341L148.101 244.898L158.337 258.29V251.2L161.534 259.077L170.345 233.622L165.922 261.347H152.248Z" fill="#727272"/>
<path d="M167.326 261.347L175.988 253.957L171.132 261.396L167.326 261.347Z" fill="#727272"/>
<path d="M490.776 265.355C490.011 230.009 476.569 166.432 476.569 166.432C476.569 166.432 442.9 199.039 436.777 205.322C425.917 216.452 438.566 233.125 392.662 260.337L362.233 237.462C378.852 220.084 433.617 135.184 447.483 118.336L509.641 95.9688C509.641 95.9688 519.746 104.55 520.665 129.67C521.583 154.789 517.602 194.922 529.237 216.978C535.764 229.336 532.42 249.773 528.224 265.354L490.776 265.355Z" fill="#A4A4A4"/>
<path d="M505.041 95.9688C505.041 95.9688 515.146 104.55 516.064 129.67C516.982 154.789 513.001 194.922 524.637 216.978C531.163 229.336 527.82 249.773 523.624 265.354" stroke="#7B7B7B" stroke-width="5" stroke-miterlimit="10" stroke-linecap="round"/>
<path d="M476.569 166.431L470.139 124.258" stroke="#7B7B7B" stroke-width="5" stroke-miterlimit="10" stroke-linecap="round"/>
<path d="M515.085 103.969L433.046 147.394C432.084 147.947 430.989 148.226 429.88 148.2C428.772 148.174 427.691 147.843 426.757 147.245C435.85 134.038 443.419 123.27 447.48 118.336L509.638 95.9688C509.638 95.9688 512.345 98.2658 515.085 103.969Z" fill="#7B7B7B"/>
<path d="M496.511 113.799C496.511 113.799 501.509 124.567 516.076 129.49" stroke="#7B7B7B" stroke-width="5" stroke-miterlimit="10" stroke-linecap="round"/>
<path d="M392.663 260.029C382.761 267.949 374.433 273.316 374.433 273.316L337.633 246.584C337.633 246.584 339.312 244.178 342.082 244.696C350.368 246.245 356.388 246.152 361.162 239.448C361.515 238.953 361.872 238.445 362.232 237.924L392.663 260.029Z" fill="white" stroke="#FFE700" stroke-width="5" stroke-miterlimit="10"/>
<path d="M374.694 273.506L373.21 275.551C373.076 275.732 372.876 275.852 372.654 275.885C372.431 275.918 372.205 275.861 372.024 275.728L364.562 270.307C364.378 270.176 364.254 269.978 364.216 269.755C364.179 269.532 364.231 269.304 364.362 269.12C364.492 268.936 364.544 268.707 364.506 268.485C364.469 268.262 364.344 268.063 364.16 267.933L358.936 264.135C358.755 264.002 358.529 263.945 358.306 263.979C358.084 264.012 357.884 264.132 357.749 264.312C357.615 264.492 357.414 264.611 357.192 264.644C356.97 264.677 356.744 264.62 356.563 264.487L336.035 249.593C335.851 249.462 335.727 249.264 335.689 249.041C335.651 248.819 335.703 248.59 335.834 248.406L337.317 246.361L374.694 273.506Z" fill="#FFE700"/>
<path d="M365.894 249.167L357.631 243.166L360.221 240.667L367.975 246.3L365.894 249.167Z" fill="#FFE700"/>
<path d="M527.915 265.355C524.622 277.584 521.11 286.823 521.11 286.823H476.569C476.569 286.823 476.518 283.891 479.012 282.681C486.47 279.064 491.186 275.449 491.114 267.218C491.108 266.606 491.098 265.985 491.086 265.355H527.915Z" fill="white" stroke="#FFE700" stroke-width="5" stroke-miterlimit="10"/>
<path d="M521.426 286.823V289.346C521.426 289.569 521.337 289.783 521.179 289.94C521.022 290.098 520.808 290.187 520.585 290.187H511.558C511.335 290.187 511.121 290.098 510.963 289.94C510.806 289.783 510.717 289.569 510.717 289.346C510.717 289.122 510.628 288.908 510.47 288.75C510.312 288.591 510.098 288.503 509.875 288.503H503.549C503.325 288.503 503.111 288.591 502.953 288.75C502.795 288.908 502.706 289.122 502.706 289.346C502.706 289.456 502.684 289.566 502.642 289.668C502.6 289.77 502.538 289.863 502.459 289.941C502.381 290.019 502.288 290.081 502.186 290.123C502.084 290.165 501.974 290.187 501.864 290.187H477.03C476.92 290.187 476.81 290.165 476.708 290.123C476.606 290.081 476.513 290.019 476.435 289.941C476.357 289.863 476.295 289.77 476.252 289.668C476.21 289.566 476.188 289.456 476.188 289.346V286.823H521.426Z" fill="#FFE700"/>
<path d="M500.453 272.303H490.452L491.068 268.758H500.453V272.303Z" fill="#FFE700"/>
<path d="M504.545 98.2791L447.483 118.336L418.413 90.8462C416.929 89.4425 416.023 90.358 415.824 92.391C415.221 98.5833 415.695 109.998 414.531 122.624H381.853L382.916 82.6106C383.121 74.9191 385.279 67.4062 389.186 60.779C393.093 54.1518 398.621 48.6281 405.251 44.7279L455.592 15.1061C474.073 4.23205 497.898 11.7391 506.812 31.2466L520.398 60.9678C527.114 75.6495 519.772 92.9282 504.545 98.2791Z" fill="#5BC17F"/>
<g opacity="0.5">
<path d="M387.737 63.437V122.624H386.969V65.0485C387.214 64.5054 387.47 63.9683 387.737 63.437Z" fill="white"/>
<path d="M393.385 54.8141V122.629H392.617V55.7653C392.731 55.6169 392.851 55.4685 392.974 55.3201C393.097 55.1717 393.246 54.9803 393.385 54.8141Z" fill="white"/>
<path d="M399.033 49.1292V122.624H398.265V49.791L398.413 49.6648C398.617 49.4828 398.823 49.3043 399.033 49.1292Z" fill="white"/>
<path d="M404.681 45.0692V122.624H403.911V45.547C404.165 45.3853 404.423 45.225 404.681 45.0692Z" fill="white"/>
<path d="M410.329 41.7394V122.624H409.559V42.192L410.329 41.7394Z" fill="white"/>
<path d="M415.977 38.4154V91.4963C415.905 91.7887 415.855 92.0864 415.829 92.3866C415.777 92.9178 415.733 93.4867 415.697 94.0931C415.679 94.3439 415.666 94.5991 415.652 94.8632C415.577 96.3175 415.531 97.9542 415.494 99.7438C415.494 99.9976 415.483 100.253 415.476 100.514C415.448 102.042 415.421 103.676 415.385 105.395C415.385 105.648 415.375 105.905 415.371 106.163C415.337 107.729 415.295 109.36 415.239 111.045C415.23 111.282 415.221 111.519 415.212 111.758V38.868L415.977 38.4154Z" fill="white"/>
<path d="M421.625 35.0929V93.8838L420.855 93.1567V35.5455L421.625 35.0929Z" fill="white"/>
<path d="M427.272 31.7689V99.2244L426.503 98.4973V32.2215L426.977 31.944L427.272 31.7689Z" fill="white"/>
<path d="M432.92 28.4449V104.566L432.151 103.838V28.8975L432.92 28.4449Z" fill="white"/>
<path d="M438.566 25.124V109.906L437.798 109.178V25.5751L438.566 25.124Z" fill="white"/>
<path d="M444.215 21.8015V115.248L443.446 114.521V22.2541L444.215 21.8015Z" fill="white"/>
<path d="M449.863 18.4775V117.499L449.093 117.767V18.9301L449.863 18.4775Z" fill="white"/>
<path d="M455.511 15.1537V115.513L454.741 115.785V15.6063L455.511 15.1537Z" fill="white"/>
<path d="M461.158 12.4321V113.528L460.389 113.799V12.7452C460.644 12.631 460.9 12.5316 461.158 12.4321Z" fill="white"/>
<path d="M466.805 10.8043V111.544L466.037 111.814V10.969C466.292 10.9112 466.548 10.8577 466.805 10.8043Z" fill="white"/>
<path d="M472.453 10.1306V109.552L471.685 109.822V10.1692C471.94 10.1529 472.197 10.1395 472.453 10.1306Z" fill="white"/>
<path d="M478.101 10.3502V107.573L477.333 107.844V10.2671C477.593 10.2908 477.846 10.319 478.101 10.3502Z" fill="white"/>
<path d="M483.749 11.472V105.587L482.981 105.859V11.2643C483.238 11.3296 483.494 11.4008 483.749 11.472Z" fill="white"/>
<path d="M489.396 13.5867V103.603L488.626 103.874V13.235C488.886 13.3552 489.141 13.465 489.396 13.5867Z" fill="white"/>
<path d="M495.044 16.9165V101.618L494.274 101.89V16.3719C494.532 16.5456 494.797 16.7251 495.044 16.9165Z" fill="white"/>
<path d="M500.692 21.9411V99.6325L500.366 99.7483L499.921 99.8967V21.1205C500.016 21.2184 500.109 21.3149 500.201 21.4173C500.367 21.5879 500.53 21.763 500.692 21.9411Z" fill="white"/>
<path d="M506.34 30.2465V97.5773C506.085 97.6886 505.828 97.7939 505.57 97.8963V28.7715C505.836 29.2552 506.094 29.7464 506.34 30.2465Z" fill="white"/>
<path d="M511.987 42.5585V94.2979C511.734 94.4888 511.478 94.6748 511.218 94.8558V40.8757L511.987 42.5585Z" fill="white"/>
<path d="M517.639 54.9134V89.2169H517.132C517.047 89.3297 516.96 89.4395 516.871 89.5508V53.2322L517.471 54.5454L517.639 54.9134Z" fill="white"/>
<path d="M414.974 116.7C414.958 116.956 414.943 117.212 414.926 117.469H382.09V116.7H414.974Z" fill="white"/>
<path d="M452.135 116.7L449.946 117.469H446.564L445.75 116.7H452.135Z" fill="white"/>
<path d="M415.234 111.05C415.225 111.286 415.216 111.524 415.207 111.762V111.818H382.141L382.16 111.05H415.234Z" fill="white"/>
<path d="M468.21 111.05L466.807 111.544L466.037 111.814V111.818H440.59L439.775 111.05H468.21Z" fill="white"/>
<path d="M415.381 105.399C415.381 105.653 415.37 105.909 415.366 106.168H382.291L382.311 105.399H415.381Z" fill="white"/>
<path d="M484.288 105.399L483.749 105.587L482.981 105.859L482.098 106.169H434.614L433.799 105.399H484.288Z" fill="white"/>
<path d="M415.489 99.7483C415.489 100.002 415.479 100.257 415.471 100.518H382.44L382.461 99.7483H415.489Z" fill="white"/>
<path d="M500.366 99.7483L499.922 99.9041L498.175 100.518H428.639L427.827 99.7483H500.366Z" fill="white"/>
<path d="M415.693 94.0975C415.675 94.3483 415.661 94.6035 415.648 94.8677H382.59L382.611 94.0975H415.693Z" fill="white"/>
<path d="M512.25 94.0975C512.163 94.1658 512.074 94.2311 511.986 94.2979C511.734 94.4888 511.478 94.6748 511.218 94.8558V94.8677H422.671L421.856 94.0975H512.25Z" fill="white"/>
<path d="M517.704 88.4409L517.634 88.5359V89.2111H382.741L382.762 88.4409H517.704Z" fill="white"/>
<path d="M520.835 82.802C520.731 83.0617 520.622 83.3169 520.506 83.5722H382.891L382.912 82.802H520.835Z" fill="white"/>
<path d="M522.477 77.1469C522.431 77.4041 522.381 77.6603 522.329 77.9155H383.287C383.32 77.6588 383.355 77.4021 383.394 77.1469H522.477Z" fill="white"/>
<path d="M522.897 72.2662H384.396C384.464 72.009 384.534 71.7528 384.607 71.4976H522.885C522.892 71.7543 522.897 72.0095 522.897 72.2662Z" fill="white"/>
<path d="M522.283 66.6156H386.288C386.393 66.3589 386.503 66.1022 386.611 65.8469H522.105C522.167 66.1022 522.228 66.3589 522.283 66.6156Z" fill="white"/>
<path d="M520.402 60.9663H389.079C389.227 60.7066 389.376 60.4514 389.537 60.1962H520.049L520.402 60.9663Z" fill="white"/>
<path d="M517.819 55.3156H392.974C393.108 55.1479 393.246 54.9802 393.385 54.814C393.458 54.7235 393.533 54.6344 393.61 54.5454H517.467L517.635 54.9134L517.819 55.3156Z" fill="white"/>
<path d="M515.236 49.6649H398.409C398.615 49.4819 398.824 49.3033 399.033 49.1292C399.125 49.0491 399.217 48.9719 399.312 48.8948H514.883L515.236 49.6649Z" fill="white"/>
<path d="M512.653 44.0142H406.464L407.771 43.244H512.301L512.653 44.0142Z" fill="white"/>
<path d="M510.069 38.3634H416.066L417.373 37.5933H509.719L510.069 38.3634Z" fill="white"/>
<path d="M507.487 32.7128H425.67L426.504 32.2216L426.977 31.9441H507.135L507.487 32.7128Z" fill="white"/>
<path d="M504.567 27.0635H435.269L436.576 26.2948H504.071C504.241 26.5485 504.406 26.8053 504.567 27.0635Z" fill="white"/>
<path d="M500.202 21.4127H444.879L446.186 20.644H499.458C499.616 20.8013 499.773 20.9601 499.928 21.1204C500.017 21.2198 500.111 21.3148 500.202 21.4127Z" fill="white"/>
<path d="M493.345 15.7636H454.475L454.741 15.6063L455.51 15.1611L455.592 15.1136L455.785 15.0009H492.082C492.507 15.2412 492.929 15.4965 493.345 15.7636Z" fill="white"/>
</g>
<path d="M485.04 74.222L477.692 55.4327" stroke="#7B7B7B" stroke-width="5" stroke-miterlimit="10" stroke-linecap="round"/>
<path d="M451.611 17.8469L446.205 60.7096" stroke="#7B7B7B" stroke-width="5" stroke-miterlimit="10" stroke-linecap="round"/>
<path d="M446.205 60.7095L412.732 40.7242" stroke="#7B7B7B" stroke-width="5" stroke-miterlimit="10" stroke-linecap="round"/>
<path d="M446.051 60.4023L461.157 92.8064" stroke="#7B7B7B" stroke-width="5" stroke-miterlimit="10" stroke-linecap="round"/>
<path d="M446.205 74.4342C447.267 74.4342 448.127 73.5732 448.127 72.511C448.127 71.4489 447.267 70.5879 446.205 70.5879C445.143 70.5879 444.283 71.4489 444.283 72.511C444.283 73.5732 445.143 74.4342 446.205 74.4342Z" stroke="#7B7B7B" stroke-width="5" stroke-miterlimit="10" stroke-linecap="round"/>
<path d="M451.766 87.1736C452.827 87.1736 453.688 86.3125 453.688 85.2504C453.688 84.1883 452.827 83.3273 451.766 83.3273C450.704 83.3273 449.843 84.1883 449.843 85.2504C449.843 86.3125 450.704 87.1736 451.766 87.1736Z" stroke="#7B7B7B" stroke-width="5" stroke-miterlimit="10" stroke-linecap="round"/>
<path d="M406.983 171.485C406.706 174.543 405.8 177.511 404.321 180.202C402.842 182.893 400.822 185.248 398.389 187.121C391.961 192.066 383.63 198.274 382.16 198.398C380.38 198.547 377.489 191.143 376.024 187.045C375.751 186.279 375.723 185.447 375.944 184.665C376.166 183.883 376.625 183.189 377.259 182.681L380.324 180.529L381.138 149.587L381.856 122.63H414.534L406.983 171.485Z" fill="white" stroke="#7B7B7B" stroke-width="5" stroke-miterlimit="10"/>
<path d="M414.359 123.695L412.727 134.144C412.751 129.232 406.201 125.815 397.462 125.685C389.018 125.564 382.117 129.127 381.552 133.802L381.848 122.621C381.918 117.687 389.201 114.485 397.969 114.608C406.738 114.731 414.431 118.762 414.359 123.695Z" fill="white" stroke="#7B7B7B" stroke-width="5" stroke-miterlimit="10"/>
<path d="M386.513 125.064C387.575 125.064 388.435 124.203 388.435 123.141C388.435 122.078 387.575 121.217 386.513 121.217C385.451 121.217 384.591 122.078 384.591 123.141C384.591 124.203 385.451 125.064 386.513 125.064Z" fill="white" stroke="#7B7B7B" stroke-width="5" stroke-miterlimit="10" stroke-linecap="round"/>
<path d="M312.687 287.218C303.578 280.688 301.923 267.271 308.949 256.933L320.791 238.992L355.774 264.274L342.472 281.157C334.908 291.025 321.743 293.704 312.687 287.218Z" fill="white" stroke="#7B7B7B" stroke-width="5" stroke-miterlimit="10"/>
<path d="M405.629 157.368L338.965 252.211" stroke="#7B7B7B" stroke-width="10" stroke-miterlimit="10" stroke-linecap="round"/>
<path d="M439.335 157.368H405.629V127.542C405.629 124.745 408.919 123.247 411.026 125.086L441.475 151.648C443.743 153.633 442.344 157.368 439.335 157.368Z" stroke="#FFE700" stroke-width="10" stroke-miterlimit="10"/>
<path d="M326.386 269.883C324.701 268.696 326.208 263.714 329.785 258.646L335.891 249.905L342.332 254.558L335.954 263.106C332.292 268.069 328.062 271.064 326.386 269.883Z" fill="white" stroke="#7B7B7B" stroke-width="5" stroke-miterlimit="10"/>
<path d="M398.834 179.318C398.481 179.54 398.085 179.685 397.673 179.742C397.26 179.8 396.839 179.77 396.439 179.653C396.039 179.537 395.668 179.337 395.35 179.066C395.033 178.796 394.776 178.462 394.597 178.085L392.789 174.279C392.69 174.071 392.547 173.886 392.371 173.737C392.195 173.589 391.989 173.48 391.767 173.417C391.545 173.355 391.312 173.34 391.084 173.375C390.856 173.41 390.639 173.493 390.445 173.619L377.892 181.961C377.005 182.548 376.355 183.43 376.057 184.45C375.758 185.47 375.83 186.564 376.26 187.536L380.207 196.708C380.364 197.074 380.604 197.399 380.907 197.658C381.21 197.917 381.568 198.103 381.954 198.201C382.341 198.299 382.744 198.307 383.134 198.225C383.524 198.142 383.889 197.971 384.203 197.725L401.124 183.8L398.834 179.318Z" fill="white"/>
<path d="M398.834 179.318C398.481 179.54 398.085 179.685 397.672 179.742C397.26 179.8 396.839 179.77 396.439 179.653C396.039 179.537 395.668 179.337 395.35 179.066C395.033 178.796 394.776 178.462 394.597 178.085L392.789 174.279C392.69 174.071 392.547 173.886 392.371 173.737C392.195 173.589 391.989 173.48 391.767 173.417C391.545 173.355 391.312 173.34 391.084 173.375C390.856 173.41 390.638 173.493 390.445 173.619L377.254 182.67C376.62 183.179 376.16 183.873 375.938 184.655C375.717 185.437 375.745 186.269 376.018 187.035C377.484 191.133 380.38 198.536 382.154 198.388C383.624 198.266 391.955 192.059 398.383 187.11" stroke="#7B7B7B" stroke-width="5" stroke-miterlimit="10" stroke-linecap="round"/>
<path d="M386.587 195.779C384.036 195.779 381.025 189.203 379.867 184.423C379.474 182.802 379.802 181.102 381.102 180.059" stroke="#7B7B7B" stroke-width="5" stroke-miterlimit="10" stroke-linecap="round"/>
<path d="M390.512 193.047C388.732 193.196 385.312 186.598 383.866 181.654C383.399 180.053 383.802 178.333 385.101 177.29" stroke="#7B7B7B" stroke-width="5" stroke-miterlimit="10" stroke-linecap="round"/>
<path d="M395.232 189.467C393.452 189.615 390.512 183.075 389.096 178.113C388.637 176.511 389.149 174.662 390.448 173.619" stroke="#7B7B7B" stroke-width="5" stroke-miterlimit="10" stroke-linecap="round"/>
<path d="M499.922 101.235L432.551 147.649C431.414 148.431 430.045 148.801 428.67 148.7C427.295 148.598 425.995 148.03 424.986 147.089L413.773 136.646C413.4 136.298 413.12 135.862 412.959 135.377C412.799 134.893 412.763 134.376 412.855 133.874L414.26 124.525C414.496 123.232 415.07 122.024 415.922 121.022C416.774 120.021 417.874 119.262 419.113 118.822L433.139 113.946L481.403 75.5234C485.95 77.3804 489.96 80.348 493.065 84.1549C496.171 87.9618 498.273 92.4867 499.181 97.3161L499.922 101.235Z" fill="white" stroke="#7B7B7B" stroke-width="5" stroke-miterlimit="10"/>
<path d="M412.974 135.399L420.827 126.226" stroke="#7B7B7B" stroke-width="5" stroke-miterlimit="10" stroke-linecap="round"/>
<path d="M417.171 139.508L425.026 130.334" stroke="#7B7B7B" stroke-width="5" stroke-miterlimit="10" stroke-linecap="round"/>
<path d="M421.526 143.768L429.379 134.595" stroke="#7B7B7B" stroke-width="5" stroke-miterlimit="10" stroke-linecap="round"/>
<path d="M425.563 147.263L433.418 138.089" stroke="#7B7B7B" stroke-width="5" stroke-miterlimit="10" stroke-linecap="round"/>
<path d="M503.911 98.5314L495.548 104.249C499.264 101.041 497.435 93.7384 491.791 87.0638C486.335 80.6147 479.043 77.8902 475.148 80.5346L483.397 73.8169C487.161 70.628 494.805 73.4727 500.47 80.1695C506.134 86.8664 507.677 95.344 503.911 98.5314Z" fill="white" stroke="#7B7B7B" stroke-width="5" stroke-miterlimit="10"/>
<path d="M486.515 79.0521C487.577 79.0521 488.438 78.1911 488.438 77.129C488.438 76.0668 487.577 75.2058 486.515 75.2058C485.454 75.2058 484.593 76.0668 484.593 77.129C484.593 78.1911 485.454 79.0521 486.515 79.0521Z" fill="white" stroke="#7B7B7B" stroke-width="5" stroke-miterlimit="10" stroke-linecap="round"/>
<path d="M415.941 30.0595C425.757 27.4552 423.951 23.3819 425.919 21.8134C428.823 19.4985 431.46 23.6727 432.245 25.1017L434.266 23.2973C434.177 22.7394 432.722 14.06 428.523 14.428C426.512 14.6046 424.964 19.5801 418.021 18.8233C409.034 17.841 403.058 21.4068 407.094 27.8752C408.003 29.3368 412.161 30.7169 415.941 30.0595Z" fill="#D2AE52"/>
<path d="M438.09 25.4623L446.051 60.4024L421.337 35.2976L438.09 25.4623Z" fill="white"/>
<path d="M437.444 30.8652C439.026 39.7315 435.305 47.0902 433.073 47.2267L421.339 35.305L435.361 27.0708L437.444 30.8652Z" fill="#7B7B7B"/>
<path d="M439.578 28.5919C440.212 28.0269 440.597 27.2329 440.646 26.3844C440.696 25.536 440.406 24.7026 439.842 24.0675L439.128 23.2647C438.563 22.6301 437.769 22.2458 436.921 22.1963C436.073 22.1468 435.24 22.436 434.605 23.0006L432.245 25.1018C431.462 23.6728 428.825 19.4985 425.92 21.8134C423.957 23.379 425.759 27.4523 415.941 30.0595C415.941 30.0595 420.769 39.4452 421.908 39.4452C423.047 39.4452 425.216 38.6321 425.216 38.6321C425.216 38.6321 428.939 43.066 429.934 43.066C432.159 43.066 437.053 36.8662 437.053 30.7362L439.578 28.5919Z" fill="white" stroke="#7B7B7B" stroke-width="5" stroke-miterlimit="10"/>
<path d="M421.8 30.2925C421.8 30.2925 423.969 29.2611 426.3 29.4244" stroke="#7B7B7B" stroke-width="5" stroke-miterlimit="10" stroke-linecap="round"/>
<path d="M426.001 33.7888C426.31 33.5905 426.259 32.959 425.886 32.3782C425.514 31.7974 424.961 31.4872 424.653 31.6855C424.344 31.8837 424.395 32.5153 424.768 33.0961C425.14 33.6769 425.692 33.987 426.001 33.7888Z" fill="#7B7B7B"/>
<path d="M435.871 27.6734C435.174 26.5975 435.447 25.1789 436.482 24.5082" stroke="#7B7B7B" stroke-width="5" stroke-miterlimit="10" stroke-linecap="round"/>
<path d="M89.7339 197.211L111.527 183.133C115.549 180.535 118.856 176.97 121.146 172.764C123.436 168.557 124.635 163.844 124.635 159.054V110.044C124.757 119.579 126.206 128.039 128.561 135.539C132.407 147.782 138.662 157.468 145.492 165.11C158.82 180.022 174.337 187.153 178.398 190.313C178.398 190.313 176.997 202.466 158.856 212.518C146.917 219.133 127.028 227.376 113.441 233.617L89.7339 197.211Z" fill="#7B7B7B"/>
<path d="M260.108 221.022L219.833 237.617C211.501 222.227 198.149 203.536 178.391 190.317C170.975 184.546 125.341 165.536 124.626 110.038C124.626 110.038 156.901 113.246 162.358 97.3442C162.358 97.3442 168.51 102.449 180.382 102.449C180.382 102.449 175.285 108.002 191.506 123.025C213.831 143.703 243.781 169.827 260.108 221.022Z" fill="#727272"/>
<path d="M124.923 113.457C124.923 113.457 158.384 116.665 163.841 100.763" stroke="#7B7B7B" stroke-width="5" stroke-miterlimit="10" stroke-linecap="round"/>
<path d="M162.372 104.928C162.372 104.928 157.042 114.537 173.265 129.561C195.587 150.234 225.538 176.358 241.865 227.553" stroke="#7B7B7B" stroke-width="5" stroke-miterlimit="10" stroke-linecap="round"/>
<path d="M145.485 165.114C138.662 157.472 132.4 147.787 128.554 135.543H148.715C148.715 135.543 158.511 162.043 145.485 165.114Z" stroke="#7B7B7B" stroke-width="5" stroke-miterlimit="10" stroke-linecap="round"/>
<path d="M90.109 265.94L86.8 268.086C86.5676 268.227 86.2886 268.271 86.0243 268.207C85.7599 268.143 85.5316 267.976 85.3895 267.744L83.5325 264.877C83.3789 264.653 83.3206 264.376 83.3704 264.109C83.4202 263.841 83.5739 263.604 83.798 263.45C83.9364 263.359 84.0497 263.235 84.1275 263.089C84.2053 262.943 84.245 262.78 84.243 262.614C84.2433 262.404 84.1819 262.197 84.0665 262.021L82.2332 259.191C82.0911 258.959 81.8628 258.793 81.5984 258.729C81.334 258.665 81.0551 258.708 80.8227 258.85C80.6667 258.949 80.4853 259 80.3006 258.998C80.1228 258.997 79.9483 258.951 79.7928 258.864C79.6374 258.778 79.506 258.654 79.4107 258.504L77.5537 255.637C77.4001 255.412 77.3418 255.136 77.3916 254.868C77.4414 254.601 77.5951 254.364 77.8192 254.21C77.9575 254.119 78.0708 253.995 78.1485 253.849C78.2263 253.703 78.2661 253.54 78.2642 253.374C78.2643 253.163 78.203 252.957 78.0877 252.781L76.2544 249.949C76.1842 249.834 76.092 249.734 75.983 249.655C75.8741 249.575 75.7506 249.518 75.6196 249.487C75.4886 249.455 75.3526 249.45 75.2195 249.471C75.0864 249.492 74.9588 249.539 74.8439 249.61C74.6879 249.708 74.5065 249.76 74.3218 249.758C74.144 249.756 73.9695 249.71 73.814 249.624C73.6586 249.538 73.5272 249.414 73.4319 249.264L71.5749 246.397C71.4209 246.172 71.3624 245.896 71.4122 245.628C71.462 245.36 71.616 245.123 71.8404 244.969C71.9787 244.879 72.092 244.755 72.1697 244.609C72.2475 244.463 72.2873 244.299 72.2854 244.134C72.2857 243.923 72.2243 243.717 72.1089 243.54L70.2756 240.709C70.1335 240.477 69.9051 240.311 69.6406 240.247C69.3762 240.183 69.0972 240.227 68.8651 240.369C68.7091 240.468 68.5277 240.52 68.343 240.518C68.1652 240.516 67.9907 240.47 67.8352 240.384C67.6798 240.297 67.5484 240.174 67.4531 240.023L65.5961 237.157C65.4425 236.932 65.3842 236.656 65.434 236.388C65.4838 236.12 65.6375 235.883 65.8616 235.729C65.9998 235.638 66.113 235.514 66.1907 235.368C66.2685 235.222 66.3083 235.059 66.3065 234.894C66.3063 234.683 66.2445 234.476 66.1286 234.3L64.2924 231.49C64.1502 231.257 63.922 231.091 63.6576 231.027C63.3932 230.963 63.1142 231.007 62.8818 231.148C62.7251 231.247 62.5434 231.298 62.3583 231.297C62.1805 231.295 62.006 231.249 61.8506 231.163C61.6951 231.076 61.5638 230.953 61.4683 230.802L59.6114 227.934C59.4579 227.709 59.3999 227.433 59.4499 227.165C59.5 226.898 59.654 226.661 59.8783 226.507C60.0166 226.416 60.1299 226.292 60.2077 226.146C60.2854 226 60.3252 225.837 60.3233 225.671C60.3234 225.46 60.2621 225.254 60.1468 225.078L58.3136 222.248C58.1714 222.016 57.9432 221.85 57.6788 221.786C57.4144 221.722 57.1354 221.765 56.903 221.906C56.7467 222.006 56.5647 222.058 56.3794 222.055C56.2016 222.053 56.027 222.008 55.8716 221.921C55.7161 221.835 55.5847 221.711 55.4895 221.561L53.6326 218.692C53.5564 218.581 53.5028 218.456 53.4749 218.324C53.447 218.193 53.4453 218.057 53.47 217.924C53.4946 217.792 53.5451 217.666 53.6186 217.553C53.692 217.44 53.787 217.342 53.898 217.266L59.4467 214.128L59.641 214.456C59.1117 214.832 58.7477 215.397 58.6248 216.035C58.5018 216.673 58.6294 217.333 58.981 217.879L90.109 265.94Z" fill="#7B7B7B"/>
<path d="M58.9809 217.87C58.787 217.569 58.6597 217.229 58.6072 216.875C58.5548 216.52 58.5785 216.159 58.6767 215.814C58.775 215.469 58.9455 215.149 59.177 214.876C59.4084 214.602 59.6955 214.381 60.0191 214.227L69.1779 209.909C75.5364 206.915 82.942 202.558 91.8161 196.075L113.174 233.426C112.557 233.723 111.939 234.02 111.308 234.3C81.4588 247.534 97.7148 260.179 89.9087 265.648L58.9809 217.87Z" fill="white" stroke="#7B7B7B" stroke-width="5" stroke-miterlimit="10" stroke-linecap="round"/>
<path d="M89.124 198.136L110.104 234.83" stroke="#7B7B7B" stroke-width="5" stroke-miterlimit="10" stroke-linecap="round"/>
<path d="M288.951 248.231L290.633 251.792C290.687 251.916 290.716 252.049 290.719 252.184C290.722 252.318 290.699 252.453 290.65 252.578C290.601 252.704 290.528 252.819 290.434 252.916C290.341 253.013 290.23 253.092 290.106 253.146L287.018 254.604C286.775 254.727 286.493 254.748 286.235 254.662C285.977 254.577 285.763 254.392 285.64 254.149C285.557 253.979 285.428 253.836 285.266 253.737C285.105 253.637 284.919 253.586 284.73 253.589C284.568 253.59 284.408 253.626 284.261 253.695L281.213 255.134C280.964 255.244 280.769 255.448 280.67 255.702C280.571 255.956 280.577 256.238 280.686 256.488C280.747 256.615 280.779 256.754 280.778 256.896C280.775 257.096 280.715 257.29 280.606 257.458C280.496 257.625 280.342 257.758 280.16 257.841L277.072 259.298C276.829 259.421 276.547 259.441 276.289 259.356C276.031 259.271 275.817 259.087 275.694 258.844C275.611 258.673 275.481 258.53 275.32 258.43C275.158 258.331 274.971 258.28 274.782 258.283C274.62 258.284 274.461 258.32 274.315 258.388L271.265 259.828C271.016 259.938 270.821 260.142 270.723 260.396C270.624 260.649 270.63 260.932 270.739 261.181C270.799 261.309 270.831 261.448 270.831 261.589C270.828 261.789 270.768 261.984 270.659 262.151C270.55 262.319 270.395 262.451 270.214 262.534L267.124 263.993C266.881 264.115 266.599 264.136 266.341 264.051C266.082 263.965 265.868 263.781 265.746 263.538C265.663 263.367 265.534 263.224 265.372 263.125C265.211 263.026 265.025 262.975 264.835 262.978C264.674 262.978 264.514 263.014 264.368 263.084L261.319 264.523C261.07 264.633 260.875 264.837 260.776 265.091C260.677 265.344 260.683 265.627 260.792 265.876C260.853 266.004 260.884 266.143 260.884 266.284C260.881 266.484 260.821 266.679 260.712 266.846C260.603 267.013 260.449 267.146 260.267 267.23L257.178 268.687C256.935 268.809 256.653 268.83 256.395 268.744C256.137 268.659 255.923 268.475 255.8 268.233C255.717 268.062 255.587 267.919 255.426 267.819C255.265 267.72 255.078 267.669 254.889 267.672C254.727 267.672 254.568 267.708 254.422 267.777L251.372 269.217C251.123 269.326 250.928 269.531 250.83 269.784C250.731 270.038 250.738 270.321 250.847 270.57C250.907 270.697 250.938 270.836 250.938 270.976C250.935 271.176 250.875 271.371 250.766 271.539C250.657 271.707 250.502 271.84 250.321 271.923L247.231 273.38C246.988 273.502 246.707 273.523 246.449 273.438C246.19 273.353 245.976 273.169 245.853 272.926C245.771 272.756 245.641 272.613 245.48 272.513C245.319 272.414 245.133 272.363 244.944 272.365C244.782 272.365 244.622 272.402 244.475 272.472L241.426 273.91C241.177 274.02 240.982 274.224 240.883 274.478C240.785 274.732 240.791 275.014 240.901 275.263C240.961 275.391 240.992 275.53 240.991 275.672C240.989 275.871 240.929 276.066 240.82 276.234C240.711 276.401 240.556 276.534 240.374 276.617L237.286 278.074C237.043 278.196 236.761 278.217 236.503 278.132C236.244 278.047 236.03 277.863 235.907 277.62L233.521 271.704L233.871 271.555C234.172 272.13 234.684 272.567 235.299 272.774C235.915 272.981 236.586 272.942 237.174 272.667L288.951 248.231Z" fill="#7B7B7B"/>
<path d="M237.173 272.667C236.849 272.818 236.496 272.899 236.138 272.904C235.78 272.908 235.425 272.837 235.097 272.693C234.768 272.55 234.474 272.338 234.234 272.073C233.994 271.807 233.814 271.493 233.704 271.151C232.685 267.933 231.708 264.839 230.65 261.493C228.534 254.788 225.208 246.863 219.971 237.197L259.825 221.022C260.033 221.672 260.249 222.326 260.442 222.988C269.559 254.354 284.258 239.927 288.623 248.397L237.173 272.667Z" fill="white" stroke="#7B7B7B" stroke-width="5" stroke-miterlimit="10" stroke-linecap="round"/>
<path d="M221.656 240.142L260.81 224.248" stroke="#7B7B7B" stroke-width="5" stroke-miterlimit="10" stroke-linecap="round"/>
<path d="M185.441 100.312C183.43 100.312 181.44 99.9103 179.587 99.1306C177.734 98.3509 176.054 97.2089 174.648 95.7715C173.242 94.3342 172.136 92.6304 171.396 90.7601C170.657 88.8897 170.298 86.8904 170.34 84.8795L171.34 40.9172L192.372 40.4156L200.313 82.5334C201.967 91.7974 194.849 100.312 185.441 100.312Z" fill="#7B7B7B"/>
<path d="M171.34 40.9083L171.125 29.6914C171.076 26.8067 173.201 24.0526 176.052 23.6623L191.596 21.944L192.367 40.4156L171.34 40.9083Z" fill="#D2AE52"/>
<path d="M184.659 28.445C236.88 26.5426 252.918 5.55865 267.796 5.94446C277.118 6.18634 277.785 46.1302 264.951 45.7978C252.675 45.4802 241.134 31.1531 198.241 29.1097L184.659 28.445Z" fill="#5BC17F"/>
<path d="M184.659 28.445C236.88 26.5426 252.918 5.55865 267.796 5.94446C277.118 6.18634 277.785 46.1302 264.951 45.7978C252.675 45.4802 241.134 31.1531 198.241 29.1097L184.659 28.445Z" stroke="#7B7B7B" stroke-width="5" stroke-miterlimit="10"/>
<path d="M270.986 7.88098L270.641 42.4679" stroke="#7B7B7B" stroke-width="5" stroke-miterlimit="10"/>
<path d="M266.979 5.94446L266.581 45.6093" stroke="#7B7B7B" stroke-width="5" stroke-miterlimit="10"/>
<path d="M262.946 6.50391L262.554 45.5648" stroke="#7B7B7B" stroke-width="5" stroke-miterlimit="10"/>
<path d="M258.905 7.77856L258.538 44.5305" stroke="#7B7B7B" stroke-width="5" stroke-miterlimit="10"/>
<path d="M254.861 9.50732L254.525 42.9887" stroke="#7B7B7B" stroke-width="5" stroke-miterlimit="10"/>
<path d="M250.815 11.386L250.515 41.2481" stroke="#7B7B7B" stroke-width="5" stroke-miterlimit="10"/>
<path d="M246.765 13.493L246.506 39.5089" stroke="#7B7B7B" stroke-width="5" stroke-miterlimit="10"/>
<path d="M242.721 15.2842L242.494 37.8707" stroke="#7B7B7B" stroke-width="5" stroke-miterlimit="10"/>
<path d="M238.676 17.01L238.482 36.3795" stroke="#7B7B7B" stroke-width="5" stroke-miterlimit="10"/>
<path d="M234.631 18.6646L234.468 35.0484" stroke="#7B7B7B" stroke-width="5" stroke-miterlimit="10"/>
<path d="M230.588 20.2003L230.452 33.876" stroke="#7B7B7B" stroke-width="5" stroke-miterlimit="10"/>
<path d="M226.548 21.5433L226.435 32.8566" stroke="#7B7B7B" stroke-width="5" stroke-miterlimit="10"/>
<path d="M222.507 22.766L222.416 31.9766" stroke="#7B7B7B" stroke-width="5" stroke-miterlimit="10"/>
<path d="M218.47 23.8523L218.396 31.2288" stroke="#7B7B7B" stroke-width="5" stroke-miterlimit="10"/>
<path d="M214.433 24.8079L214.375 30.5996" stroke="#7B7B7B" stroke-width="5" stroke-miterlimit="10"/>
<path d="M210.397 25.6389L210.353 30.0817" stroke="#7B7B7B" stroke-width="5" stroke-miterlimit="10"/>
<path d="M206.363 26.3527L206.329 29.6662" stroke="#7B7B7B" stroke-width="5" stroke-miterlimit="10"/>
<path d="M202.328 26.9551L202.305 29.3457" stroke="#7B7B7B" stroke-width="5" stroke-miterlimit="10"/>
<path d="M198.297 27.4537L198.279 29.1098" stroke="#7B7B7B" stroke-width="5" stroke-miterlimit="10"/>
<path d="M254.862 9.39746L272.013 9.56811" stroke="#7B7B7B" stroke-width="5" stroke-miterlimit="10"/>
<path d="M246.767 13.3462L273.456 13.6133" stroke="#7B7B7B" stroke-width="5" stroke-miterlimit="10"/>
<path d="M238.561 17.2933L274.239 17.6495" stroke="#7B7B7B" stroke-width="5" stroke-miterlimit="10"/>
<path d="M227.584 21.2124L274.624 21.6828" stroke="#7B7B7B" stroke-width="5" stroke-miterlimit="10"/>
<path d="M213.247 25.0988L274.693 25.7131" stroke="#7B7B7B" stroke-width="5" stroke-miterlimit="10"/>
<path d="M194.239 28.9376L274.457 29.7404" stroke="#7B7B7B" stroke-width="5" stroke-miterlimit="10"/>
<path d="M228.282 33.3077L273.881 33.7633" stroke="#7B7B7B" stroke-width="5" stroke-miterlimit="10"/>
<path d="M241.453 37.4686L272.861 37.7832" stroke="#7B7B7B" stroke-width="5" stroke-miterlimit="10"/>
<path d="M251.307 41.5968L271.077 41.7942" stroke="#7B7B7B" stroke-width="5" stroke-miterlimit="10"/>
<path d="M81.3613 25.5558C81.3613 25.5558 106.939 39.8725 128.759 36.0589" stroke="#7B7B7B" stroke-width="5" stroke-miterlimit="10"/>
<path d="M63.3701 67.9288C63.3701 67.9288 77.6534 47.531 106.291 41.3282" stroke="#7B7B7B" stroke-width="5" stroke-miterlimit="10"/>
<path d="M32.687 52.0851C32.687 52.0851 46.816 58.5579 67.6907 52.3685" stroke="#7B7B7B" stroke-width="5" stroke-miterlimit="10"/>
<path d="M184.659 28.4449C180.19 28.5043 124.936 28.7684 12.1431 71.6682" stroke="#7B7B7B" stroke-width="5" stroke-miterlimit="10"/>
<path d="M238.211 36.7281C230.139 33.9087 219.7 31.2525 205.341 30.0253L204.88 29.9259C204.88 29.9259 206.032 27.2682 207.475 25.722C215.844 24.319 224.064 22.1381 232.028 19.2076L238.211 36.7281Z" fill="#7B7B7B"/>
<path d="M71.5571 17.6362C71.5571 17.6362 79.5145 16.8127 84.82 27.6749C84.82 27.6749 75.5573 27.8292 71.5571 17.6362Z" fill="#5BC17F"/>
<path d="M0 78.6931C0 78.6931 1.99195 68.8147 14.5725 70.3505C14.5725 70.3505 11.4607 81.2751 0 78.6931Z" fill="#5BC17F"/>
<path d="M53.0737 72.8108C53.0737 72.8108 54.3404 62.8137 67.001 63.4295C67.001 63.4295 64.6902 74.5514 53.0737 72.8108Z" fill="#5BC17F"/>
<path d="M69.2093 74.7398C69.2093 74.7398 64.6188 68.3917 72.1312 62.0094C72.1312 62.0094 76.7277 69.5506 69.2093 74.7398Z" fill="#7B7B7B"/>
<path d="M74.0284 74.8661C74.0284 74.8661 67.4178 70.6666 72.0409 61.9561C72.0409 61.959 79.098 67.264 74.0284 74.8661Z" fill="#5BC17F"/>
<path d="M92.3311 23.9116C92.3311 23.9116 99.9755 23.318 103.565 33.6297C103.565 33.6297 94.7769 33.5585 92.3311 23.9116Z" fill="#7B7B7B"/>
<path d="M95.7276 19.1735C95.7276 19.1735 104.312 21.5997 103.578 33.9176C103.578 33.9176 94.0442 30.3384 95.7276 19.1735Z" fill="#5BC17F"/>
<path d="M78.9067 33.5614C78.9067 33.5614 82.7527 27.6807 92.1073 30.2597C92.1073 30.2597 87.3699 36.9922 78.9067 33.5614Z" fill="#7B7B7B"/>
<path d="M28.0698 74.5737C28.0698 74.5737 28.6156 67.3292 38.8972 64.0216C38.8972 64.0216 37.9495 72.514 28.0698 74.5737Z" fill="#7B7B7B"/>
<path d="M16.999 60.5523C16.999 60.5523 23.2745 56.8974 31.8311 63.4993C31.8266 63.4993 24.2949 67.5296 16.999 60.5523Z" fill="#5BC17F"/>
<path d="M26.9277 53.0511C26.9277 53.0511 32.5387 48.4391 42.0357 53.5867C42.0357 53.5867 35.2456 58.7715 26.9277 53.0511Z" fill="#7B7B7B"/>
<path d="M28.1631 42.5257C28.1631 42.5257 37.359 41.487 42.0592 53.7426C42.0592 53.7426 31.4632 54.0349 28.1631 42.5257Z" fill="#5BC17F"/>
<path d="M177.332 28.6542L177.777 25.0542C177.926 24.4058 178.856 23.7187 179.748 23.5985L193.456 21.8178C195.451 21.5596 196.703 22.4248 196.423 23.8671L195.41 29.8547C195.16 31.3386 193.63 32.5376 191.85 32.6993L175.145 34.1402C174.163 34.2307 175.262 29.4941 175.406 28.7699L177.332 28.6542Z" fill="#D2AE52"/>
<path d="M177.332 28.5059L176.266 28.5682C175.882 28.606 175.521 28.7694 175.239 29.0331C174.957 29.2968 174.77 29.6461 174.707 30.0269L174.348 33.0822C174.2 33.8361 174.803 34.3124 175.822 34.2278C182.722 33.6521 192.628 32.7899 193.898 32.1978C195.562 31.4247 196.256 26.283 196.512 23.5036C196.611 22.4382 195.691 21.7882 194.226 21.8802" stroke="#7B7B7B" stroke-width="5" stroke-miterlimit="10" stroke-linecap="round"/>
<path d="M194.224 21.8801L176.263 24.0273" stroke="#7B7B7B" stroke-width="5" stroke-miterlimit="10" stroke-linecap="round"/>
<path d="M189.149 32.9916C191.486 31.7718 192.502 26.9951 192.298 24.0155C192.228 23.0064 191.478 22.3001 190.011 22.3936" stroke="#7B7B7B" stroke-width="5" stroke-miterlimit="10" stroke-linecap="round"/>
<path d="M184.831 33.3359C186.595 32.6904 187.886 27.7252 187.901 24.5244C187.901 23.4857 187.081 22.809 185.614 22.901" stroke="#7B7B7B" stroke-width="5" stroke-miterlimit="10" stroke-linecap="round"/>
<path d="M179.562 33.9265C181.224 33.1534 182.191 28.4256 182.175 25.2308C182.175 24.1995 181.327 23.4234 179.745 23.5985" stroke="#7B7B7B" stroke-width="5" stroke-miterlimit="10" stroke-linecap="round"/>
<path d="M177.332 28.5059L176.979 30.8029" stroke="#7B7B7B" stroke-width="5" stroke-miterlimit="10" stroke-linecap="round"/>
<path d="M227.144 36.274L204.401 86.8397C202.335 91.4875 198.967 95.4364 194.704 98.2079C190.441 100.979 185.466 102.455 180.382 102.455C168.516 102.455 162.358 97.3502 162.358 97.3502C156.901 113.252 124.626 110.044 124.626 110.044V55.8052C124.626 52.6337 125.251 49.4931 126.464 46.563C127.677 43.6328 129.455 40.9704 131.696 38.7278C133.938 36.4851 136.599 34.7062 139.528 33.4926C142.457 32.279 145.596 31.6544 148.766 31.6546H149.392C163.255 31.6546 174.394 42.8003 174.394 56.5487V61.6889L200.629 30.972L227.144 36.274Z" fill="#FFE700"/>
<path d="M180.382 102.455C161.18 102.455 143.623 83.8734 140.4 72.3315C140.4 72.3315 144.23 107.485 180.382 110.044V102.455Z" fill="#7B7B7B"/>
<path d="M175.884 59.4008L170.745 66.1555" stroke="#7B7B7B" stroke-width="5" stroke-miterlimit="10" stroke-linecap="round"/>
<path d="M226.996 36.4225L200.486 31.1131C200.486 31.1131 206.185 19.9363 208.533 18.9242C210.052 18.2713 218.052 17.0812 224.551 16.458C228.805 16.0499 232.421 15.8822 233.164 16.2666C233.322 16.3482 233.412 16.5352 233.449 16.8097L233.365 17.47C233.237 18.4776 232.34 18.945 231.359 19.2151C229.895 19.6172 228.973 19.7404 228.881 19.7805C228.053 20.1366 226.508 22.6325 224.541 25.5351C225.938 26.3557 227.423 27.6303 227.983 29.1602C228.479 30.5028 228.549 31.9656 228.184 33.3493L226.996 36.4225Z" fill="#D2AE52"/>
<path d="M207.946 25.3748C209.672 22.7542 211.422 19.0088 212.603 18.4999C213.22 18.2342 216.025 17.8009 218.506 17.5131" stroke="#7B7B7B" stroke-width="5" stroke-miterlimit="10" stroke-linecap="round"/>
<path d="M213.105 25.3748C215.044 22.4307 217.045 18.2031 218.374 17.6318C219.065 17.335 221.975 16.9462 224.402 16.7904" stroke="#7B7B7B" stroke-width="5" stroke-miterlimit="10" stroke-linecap="round"/>
<path d="M218.582 25.3748C220.52 22.4307 222.933 17.5101 224.261 16.9313C224.954 16.6346 226.9 16.1894 229.329 16.1033C230.611 16.0562 231.895 16.1092 233.169 16.2621L233.021 17.4225C232.915 18.2535 232.294 18.7165 231.506 19.0014C230.516 19.3605 229.256 19.8576 228.887 20.0164C227.552 20.5877 225.486 24.1179 224.46 25.6552C227.534 27.2386 229.51 30.8207 226.855 35.9966L200.782 31.1086" stroke="#7B7B7B" stroke-width="5" stroke-miterlimit="10" stroke-linecap="round"/>
<path d="M168.577 16.3927C156.991 19.0088 147.033 20.2865 143.871 19.6781C143.254 19.5594 142.897 19.3679 142.833 19.1023C142.819 19.0482 142.819 18.9917 142.833 18.9376C143.175 17.2237 153.838 13.5154 167.236 10.4897C180.346 7.52192 191.371 6.28285 192.82 7.54121C192.892 7.59828 192.944 7.67675 192.968 7.76528V7.77418C193.348 9.40945 182.423 13.2646 168.577 16.3927Z" fill="#7B7B7B"/>
<path d="M192.7 7.92848C191.252 6.67755 180.358 7.65841 167.247 10.6203C153.849 13.643 143.575 17.3528 143.229 19.0667C143.417 15.2664 157.489 9.31148 157.489 9.31148L157.977 4.71137C158.017 4.33135 158.175 3.9734 158.428 3.68744C158.681 3.40148 159.018 3.20177 159.39 3.11617L171.094 0.421392C171.446 0.339998 171.813 0.36416 172.151 0.490854C172.489 0.617548 172.782 0.841146 172.994 1.13367L175.929 5.19364C188.525 4.6535 192.075 7.13904 192.7 7.92848Z" fill="white" stroke="#7B7B7B" stroke-width="5" stroke-miterlimit="10" stroke-linecap="round"/>
<path d="M175.929 5.1936C173.175 5.66994 170.193 6.21453 167.098 6.91494C163.651 7.6925 160.406 8.49381 157.488 9.3159" stroke="#7B7B7B" stroke-width="5" stroke-miterlimit="10" stroke-linecap="round"/>
<path d="M171.924 22.6311L166.861 35.0573L165.773 37.7284C161.22 33.7964 155.402 31.6403 149.387 31.6562H148.766C145.21 31.6512 141.697 32.4353 138.481 33.9518L138.506 33.9251L147.457 24.3494L156.579 14.5942L171.924 22.6311Z" fill="#D2AE52"/>
<path d="M171.926 22.631L166.895 34.9816C165.128 31.858 163.322 27.6674 163.276 25.0632C163.246 23.4665 163.276 20.0965 163.196 18.0665L171.926 22.631Z" fill="#7B7B7B"/>
<path d="M160.297 13.278C160.297 13.278 163.043 12.536 166.335 11.7288C166.335 11.7288 166.335 11.7436 166.335 11.7629C166.278 12.0997 165.83 14.7737 165.941 17.0263C166.005 18.3292 166.257 19.4911 166.877 19.9793C168.646 21.3712 174.977 21.2451 176.441 20.8236C176.441 20.8236 176.989 28.2832 175.847 28.4524C174.705 28.6216 165.093 26.0381 163.833 23.5199C162.964 21.7778 163.274 19.592 163.193 17.562L163.233 16.3348C163.244 15.9403 163.178 15.5473 163.036 15.1789C162.894 14.8106 162.68 14.4742 162.407 14.1896C162.133 13.9049 161.806 13.6777 161.444 13.5211C161.082 13.3646 160.692 13.2819 160.297 13.278Z" fill="#DBE5E5"/>
<path d="M163.218 20.7138H159.25C157.154 20.7138 155.542 19.2299 155.542 17.4032V15.1492" stroke="#7B7B7B" stroke-width="5" stroke-miterlimit="10"/>
<path d="M158.455 13.2676H160.456C161.187 13.268 161.889 13.5586 162.407 14.0758C162.924 14.5929 163.216 15.2943 163.218 16.0262V20.1812H159.296C158.385 20.1812 157.51 19.8189 156.866 19.1741C156.221 18.5293 155.859 17.6548 155.859 16.7429V15.866C155.859 15.5242 155.927 15.1857 156.057 14.8699C156.188 14.5541 156.38 14.2672 156.621 14.0255C156.863 13.7838 157.15 13.5921 157.465 13.4613C157.781 13.3305 158.119 13.2632 158.461 13.2632L158.455 13.2676Z" fill="#D2AE52"/>
<path d="M161.817 17.3751C161.817 16.0159 160.459 14.9133 158.781 14.9133" stroke="#7B7B7B" stroke-width="5" stroke-miterlimit="10" stroke-linecap="round"/>
<path d="M179.425 19.4733C178.581 20.173 177.566 20.6342 176.484 20.8088L176.433 20.8177C174.969 21.2392 168.639 21.3653 166.87 19.9734C166.25 19.4852 165.997 18.3233 165.934 17.0204C165.822 14.7678 166.27 12.0938 166.328 11.757C167.047 11.5849 167.778 11.4152 168.522 11.248C171.249 10.6307 173.861 10.1039 176.288 9.67358C176.288 9.67952 178.829 13.2617 179.425 19.4733Z" fill="#D2AE52"/>
<path d="M170.46 14.5838C170.945 14.0486 171.537 13.6218 172.198 13.3313C172.858 13.0408 173.573 12.8932 174.295 12.8981" stroke="#7B7B7B" stroke-width="5" stroke-miterlimit="10" stroke-linecap="round"/>
<path d="M172.971 16.6479C173.332 16.6479 173.624 16.1702 173.624 15.581C173.624 14.9917 173.332 14.514 172.971 14.514C172.611 14.514 172.319 14.9917 172.319 15.581C172.319 16.1702 172.611 16.6479 172.971 16.6479Z" fill="#7B7B7B"/>
<path d="M166.933 35.1345L165.775 37.7269C161.222 33.7949 155.403 31.6388 149.388 31.6547H148.766C145.21 31.6498 141.697 32.4338 138.481 33.9503L147.395 24.3435C157.697 25.0647 166.933 35.1345 166.933 35.1345Z" fill="#E5F1EF"/>
<path d="M137.899 34.2323C141.269 32.5318 144.991 31.6488 148.765 31.6548H149.391C155.406 31.6388 161.225 33.7949 165.778 37.7269" stroke="#7B7B7B" stroke-width="5" stroke-miterlimit="10" stroke-linecap="round"/>
<path d="M340.476 303.779C344.941 303.779 348.561 302.626 348.561 301.203C348.561 299.781 344.941 298.627 340.476 298.627C336.011 298.627 332.391 299.781 332.391 301.203C332.391 302.626 336.011 303.779 340.476 303.779Z" fill="#7B7B7B"/>
<path d="M323.857 300.366C326.089 300.366 327.898 299.588 327.898 298.627C327.898 297.667 326.089 296.888 323.857 296.888C321.624 296.888 319.815 297.667 319.815 298.627C319.815 299.588 321.624 300.366 323.857 300.366Z" fill="#7B7B7B"/>
<path d="M260.727 293.984C260.727 293.935 260.727 293.886 260.727 293.836C260.727 289.811 264.319 286.55 268.748 286.55C270.342 286.542 271.906 286.98 273.265 287.814C273.378 285.714 274.046 283.681 275.199 281.923C276.353 280.165 277.951 278.743 279.832 277.803C281.713 276.864 283.809 276.439 285.907 276.573C288.005 276.707 290.03 277.394 291.776 278.565C292.901 271.66 299.875 266.345 308.307 266.345C317.523 266.345 324.997 272.698 324.997 280.531C324.995 281.152 324.946 281.772 324.849 282.386C325.409 282.301 325.975 282.259 326.541 282.258C328.603 282.258 330.624 282.833 332.377 283.918C334.13 285.004 335.546 286.557 336.465 288.403L336.255 288.454H344.585C345.061 285.777 346.417 283.336 348.438 281.518C350.459 279.7 353.028 278.609 355.739 278.417C358.45 278.226 361.147 278.945 363.403 280.462C365.658 281.978 367.344 284.204 368.191 286.787C369.725 285.99 371.41 285.527 373.136 285.43C374.861 285.333 376.588 285.603 378.201 286.223C379.814 286.843 381.278 287.799 382.494 289.027C383.711 290.255 384.653 291.728 385.259 293.348V293.983L260.727 293.984Z" fill="#7B7B7B"/>
</g>
<defs>
<clipPath id="clip0_40_6542">
<rect width="581" height="309" fill="white"/>
</clipPath>
</defs>
</svg>
